Nobile-Extra-Bold.ufo
<glyph name="exclam" format="1">
  <advance width="650"/>
  <unicode hex="0021"/>
  <outline>
    <contour>
      <point x="334" y="-16" type="curve" smooth="yes"/>
      <point x="440" y="-16"/>
      <point x="528" y="68"/>
      <point x="528" y="176" type="curve" smooth="yes"/>
      <point x="528" y="284"/>
      <point x="442" y="366"/>
      <point x="334" y="366" type="curve" smooth="yes"/>
      <point x="224" y="366"/>
      <point x="143" y="280"/>
      <point x="143" y="176" type="curve" smooth="yes"/>
      <point x="143" y="68"/>
      <point x="227" y="-16"/>
    </contour>
    <contour>
      <point x="235" y="542" type="line"/>
      <point x="419" y="542" type="line"/>
      <point x="496" y="1485" type="line"/>
      <point x="150" y="1485" type="line"/>
    </contour>
  </outline>
</glyph>
<glyph name="percent" format="1">
  <advance width="2146"/>
  <unicode hex="0025"/>
  <outline>
    <contour>
      <point x="476" y="887" type="curve" smooth="yes"/>
      <point x="386" y="887"/>
      <point x="329" y="967"/>
      <point x="329" y="1094" type="curve" smooth="yes"/>
      <point x="329" y="1226"/>
      <point x="386" y="1307"/>
      <point x="476" y="1307" type="curve" smooth="yes"/>
      <point x="566" y="1307"/>
      <point x="622" y="1226"/>
      <point x="622" y="1094" type="curve" smooth="yes"/>
      <point x="622" y="967"/>
      <point x="566" y="887"/>
    </contour>
    <contour>
      <point x="476" y="682" type="curve" smooth="yes"/>
      <point x="705" y="682"/>
      <point x="849" y="841"/>
      <point x="849" y="1094" type="curve" smooth="yes"/>
      <point x="849" y="1348"/>
      <point x="705" y="1507"/>
      <point x="476" y="1507" type="curve" smooth="yes"/>
      <point x="246" y="1507"/>
      <point x="101" y="1348"/>
      <point x="101" y="1094" type="curve" smooth="yes"/>
      <point x="101" y="841"/>
      <point x="246" y="682"/>
    </contour>
    <contour>
      <point x="774" y="-129" type="line"/>
      <point x="1606" y="1533" type="line"/>
      <point x="1393" y="1625" type="line"/>
      <point x="563" y="-40" type="line"/>
    </contour>
    <contour>
      <point x="1691" y="188" type="curve" smooth="yes"/>
      <point x="1601" y="188"/>
      <point x="1544" y="268"/>
      <point x="1544" y="395" type="curve" smooth="yes"/>
      <point x="1544" y="527"/>
      <point x="1601" y="608"/>
      <point x="1691" y="608" type="curve" smooth="yes"/>
      <point x="1781" y="608"/>
      <point x="1837" y="527"/>
      <point x="1837" y="395" type="curve" smooth="yes"/>
      <point x="1837" y="268"/>
      <point x="1781" y="188"/>
    </contour>
    <contour>
      <point x="1691" y="-17" type="curve" smooth="yes"/>
      <point x="1920" y="-17"/>
      <point x="2064" y="142"/>
      <point x="2064" y="395" type="curve" smooth="yes"/>
      <point x="2064" y="649"/>
      <point x="1920" y="808"/>
      <point x="1691" y="808" type="curve" smooth="yes"/>
      <point x="1461" y="808"/>
      <point x="1317" y="649"/>
      <point x="1317" y="395" type="curve" smooth="yes"/>
      <point x="1317" y="142"/>
      <point x="1461" y="-17"/>
    </contour>
  </outline>
</glyph>
<glyph name="ampersand" format="1">
  <advance width="1660"/>
  <unicode hex="0026"/>
  <outline>
    <contour>
      <point x="865" y="787" type="line"/>
      <point x="1070" y="912"/>
      <point x="1160" y="1014"/>
      <point x="1160" y="1197" type="curve" smooth="yes"/>
      <point x="1160" y="1375"/>
      <point x="978" y="1507"/>
      <point x="714" y="1507" type="curve" smooth="yes"/>
      <point x="430" y="1507"/>
      <point x="266" y="1375"/>
      <point x="266" y="1183" type="curve" smooth="yes"/>
      <point x="266" y="1020"/>
      <point x="349" y="924"/>
      <point x="483" y="827" type="curve"/>
      <point x="337" y="742"/>
      <point x="144" y="624"/>
      <point x="144" y="377" type="curve" smooth="yes"/>
      <point x="144" y="81"/>
      <point x="398" y="-17"/>
      <point x="724" y="-17" type="curve" smooth="yes"/>
      <point x="1002" y="-17"/>
      <point x="1155" y="52"/>
      <point x="1262" y="165" type="curve"/>
      <point x="1507" y="-51" type="line"/>
      <point x="1651" y="133" type="line"/>
      <point x="1402" y="339" type="line"/>
      <point x="1458" y="444"/>
      <point x="1503" y="620"/>
      <point x="1503" y="808" type="curve"/>
      <point x="1273" y="816" type="line"/>
      <point x="1273" y="717"/>
      <point x="1249" y="564"/>
      <point x="1211" y="491" type="curve"/>
    </contour>
    <contour>
      <point x="771" y="222" type="curve" smooth="yes"/>
      <point x="578" y="222"/>
      <point x="483" y="298"/>
      <point x="483" y="419" type="curve" smooth="yes"/>
      <point x="483" y="529"/>
      <point x="550" y="611"/>
      <point x="656" y="667" type="curve"/>
      <point x="1076" y="310" type="line"/>
      <point x="993" y="242"/>
      <point x="890" y="222"/>
    </contour>
    <contour>
      <point x="691" y="936" type="curve"/>
      <point x="616" y="982"/>
      <point x="547" y="1067"/>
      <point x="547" y="1162" type="curve" smooth="yes"/>
      <point x="547" y="1252"/>
      <point x="604" y="1300"/>
      <point x="724" y="1300" type="curve" smooth="yes"/>
      <point x="835" y="1300"/>
      <point x="899" y="1254"/>
      <point x="899" y="1157" type="curve" smooth="yes"/>
      <point x="899" y="1038"/>
      <point x="785" y="979"/>
    </contour>
  </outline>
</glyph>
<glyph name="quotesingle" format="1">
  <advance width="735"/>
  <unicode hex="0027"/>
  <outline>
    <contour>
      <point x="263" y="817" type="line"/>
      <point x="441" y="817" type="line"/>
      <point x="521" y="1404" type="line"/>
      <point x="521" y="1408"/>
      <point x="521" y="1486"/>
      <point x="521" y="1490" type="curve"/>
      <point x="188" y="1490" type="line"/>
      <point x="188" y="1486"/>
      <point x="187" y="1408"/>
      <point x="188" y="1404" type="curve"/>
    </contour>
  </outline>
</glyph>
<glyph name="asterisk" format="1">
  <advance width="938"/>
  <unicode hex="002A"/>
  <outline>
    <contour>
      <point x="358" y="741" type="curve"/>
      <point x="377" y="775"/>
      <point x="384" y="786"/>
      <point x="487" y="966" type="curve"/>
      <point x="615" y="739" type="line"/>
      <point x="780" y="838" type="line"/>
      <point x="643" y="1074" type="line"/>
      <point x="895" y="1073" type="line"/>
      <point x="895" y="1232" type="line"/>
      <point x="638" y="1231" type="line"/>
      <point x="780" y="1473" type="line"/>
      <point x="721" y="1508"/>
      <point x="676" y="1532"/>
      <point x="616" y="1567" type="curve"/>
      <point x="586" y="1518"/>
      <point x="571" y="1492"/>
      <point x="483" y="1340" type="curve"/>
      <point x="354" y="1567" type="line"/>
      <point x="194" y="1478" type="line"/>
      <point x="333" y="1231" type="line"/>
      <point x="58" y="1232" type="line"/>
      <point x="58" y="1073" type="line"/>
      <point x="333" y="1074" type="line"/>
      <point x="195" y="838" type="line"/>
      <point x="254" y="804"/>
      <point x="298" y="777"/>
    </contour>
  </outline>
</glyph>
<glyph name="period" format="1">
  <advance width="588"/>
  <unicode hex="002E"/>
  <outline>
    <contour>
      <point x="299" y="2" type="curve" smooth="yes"/>
      <point x="406" y="2"/>
      <point x="492" y="84"/>
      <point x="492" y="192" type="curve" smooth="yes"/>
      <point x="492" y="300"/>
      <point x="405" y="384"/>
      <point x="299" y="384" type="curve" smooth="yes"/>
      <point x="191" y="384"/>
      <point x="108" y="300"/>
      <point x="108" y="192" type="curve" smooth="yes"/>
      <point x="108" y="89"/>
      <point x="188" y="2"/>
    </contour>
  </outline>
</glyph>
<glyph name="slash" format="1">
  <advance width="922"/>
  <unicode hex="002F"/>
  <outline>
    <contour>
      <point x="96" y="-152" type="line"/>
      <point x="981" y="1547" type="line"/>
      <point x="803" y="1632" type="line"/>
      <point x="-77" y="-69" type="line"/>
    </contour>
  </outline>
</glyph>
<glyph name="one" format="1">
  <advance width="925"/>
  <unicode hex="0031"/>
  <outline>
    <contour>
      <point x="370" y="0" type="line"/>
      <point x="714" y="0" type="line"/>
      <point x="714" y="1097" type="line"/>
      <point x="388" y="1097" type="line"/>
      <point x="93" y="955" type="line"/>
      <point x="186" y="734" type="line"/>
      <point x="370" y="818" type="line"/>
    </contour>
  </outline>
</glyph>
<glyph name="three" format="1">
  <advance width="1169"/>
  <unicode hex="0033"/>
  <outline>
    <contour>
      <point x="688" y="205" type="curve" smooth="yes"/>
      <point x="688" y="99"/>
      <point x="609" y="56"/>
      <point x="503" y="56" type="curve" smooth="yes"/>
      <point x="424" y="56"/>
      <point x="330" y="80"/>
      <point x="247" y="124" type="curve"/>
      <point x="164" y="-111" type="line"/>
      <point x="291" y="-165"/>
      <point x="433" y="-197"/>
      <point x="567" y="-197" type="curve" smooth="yes"/>
      <point x="805" y="-197"/>
      <point x="1018" y="-90"/>
      <point x="1018" y="186" type="curve" smooth="yes"/>
      <point x="1018" y="274"/>
      <point x="971" y="457"/>
      <point x="761" y="493" type="curve"/>
      <point x="895" y="517"/>
      <point x="975" y="652"/>
      <point x="975" y="780" type="curve" smooth="yes"/>
      <point x="975" y="1019"/>
      <point x="781" y="1116"/>
      <point x="559" y="1116" type="curve" smooth="yes"/>
      <point x="422" y="1116"/>
      <point x="268" y="1077"/>
      <point x="141" y="1013" type="curve"/>
      <point x="249" y="786" type="line"/>
      <point x="339" y="835"/>
      <point x="427" y="859"/>
      <point x="502" y="859" type="curve" smooth="yes"/>
      <point x="615" y="859"/>
      <point x="668" y="810"/>
      <point x="668" y="733" type="curve" smooth="yes"/>
      <point x="668" y="631"/>
      <point x="570" y="588"/>
      <point x="411" y="588" type="curve"/>
      <point x="411" y="372" type="line"/>
      <point x="498" y="371"/>
      <point x="688" y="324"/>
    </contour>
  </outline>
</glyph>
<glyph name="five" format="1">
  <advance width="1167"/>
  <unicode hex="0035"/>
  <outline>
    <contour>
      <point x="550" y="-178" type="curve" smooth="yes"/>
      <point x="825" y="-178"/>
      <point x="1024" y="0"/>
      <point x="1024" y="258" type="curve" smooth="yes"/>
      <point x="1024" y="463"/>
      <point x="912" y="685"/>
      <point x="653" y="685" type="curve" smooth="yes"/>
      <point x="595" y="685"/>
      <point x="524" y="673"/>
      <point x="458" y="644" type="curve"/>
      <point x="458" y="856" type="line"/>
      <point x="945" y="856" type="line"/>
      <point x="945" y="1096" type="line"/>
      <point x="180" y="1096" type="line"/>
      <point x="180" y="512" type="line"/>
      <point x="319" y="389" type="line"/>
      <point x="413" y="442"/>
      <point x="489" y="464"/>
      <point x="550" y="464" type="curve" smooth="yes"/>
      <point x="666" y="464"/>
      <point x="729" y="385"/>
      <point x="729" y="260" type="curve" smooth="yes"/>
      <point x="729" y="146"/>
      <point x="655" y="88"/>
      <point x="527" y="88" type="curve" smooth="yes"/>
      <point x="387" y="88"/>
      <point x="283" y="127"/>
      <point x="189" y="158" type="curve"/>
      <point x="150" y="-90" type="line"/>
      <point x="263" y="-139"/>
      <point x="424" y="-178"/>
    </contour>
  </outline>
</glyph>
<glyph name="seven" format="1">
  <advance width="1072"/>
  <unicode hex="0037"/>
  <outline>
    <contour>
      <point x="484" y="-242" type="line"/>
      <point x="1040" y="920" type="line"/>
      <point x="961" y="1096" type="line"/>
      <point x="128" y="1096" type="line"/>
      <point x="128" y="842" type="line"/>
      <point x="648" y="842" type="line"/>
      <point x="191" y="-112" type="line"/>
    </contour>
  </outline>
</glyph>
<glyph name="eight" format="1">
  <advance width="1263"/>
  <unicode hex="0038"/>
  <outline>
    <contour>
      <point x="630" y="-141" type="curve" smooth="yes"/>
      <point x="890" y="-141"/>
      <point x="1120" y="-22"/>
      <point x="1120" y="247" type="curve" smooth="yes"/>
      <point x="1120" y="415"/>
      <point x="979" y="536"/>
      <point x="842" y="552" type="curve"/>
      <point x="986" y="579"/>
      <point x="1088" y="705"/>
      <point x="1088" y="858" type="curve" smooth="yes"/>
      <point x="1088" y="1087"/>
      <point x="901" y="1225"/>
      <point x="630" y="1225" type="curve" smooth="yes"/>
      <point x="360" y="1225"/>
      <point x="173" y="1089"/>
      <point x="173" y="858" type="curve" smooth="yes"/>
      <point x="173" y="704"/>
      <point x="276" y="579"/>
      <point x="418" y="552" type="curve"/>
      <point x="284" y="535"/>
      <point x="141" y="416"/>
      <point x="141" y="247" type="curve" smooth="yes"/>
      <point x="141" y="-22"/>
      <point x="369" y="-141"/>
    </contour>
    <contour>
      <point x="630" y="122" type="curve" smooth="yes"/>
      <point x="517" y="122"/>
      <point x="459" y="168"/>
      <point x="459" y="262" type="curve" smooth="yes"/>
      <point x="459" y="381"/>
      <point x="518" y="452"/>
      <point x="630" y="452" type="curve" smooth="yes"/>
      <point x="742" y="452"/>
      <point x="801" y="383"/>
      <point x="801" y="263" type="curve" smooth="yes"/>
      <point x="801" y="168"/>
      <point x="744" y="122"/>
    </contour>
    <contour>
      <point x="630" y="695" type="curve" smooth="yes"/>
      <point x="525" y="695"/>
      <point x="482" y="738"/>
      <point x="482" y="843" type="curve" smooth="yes"/>
      <point x="482" y="921"/>
      <point x="521" y="974"/>
      <point x="630" y="974" type="curve" smooth="yes"/>
      <point x="736" y="974"/>
      <point x="778" y="922"/>
      <point x="778" y="844" type="curve" smooth="yes"/>
      <point x="778" y="738"/>
      <point x="737" y="695"/>
    </contour>
  </outline>
</glyph>
<glyph name="greater" format="1">
  <advance width="1438"/>
  <unicode hex="003E"/>
  <outline>
    <contour>
      <point x="324" y="84" type="line"/>
      <point x="1344" y="711" type="line"/>
      <point x="324" y="1338" type="line"/>
      <point x="185" y="1116" type="line"/>
      <point x="829" y="711" type="line"/>
      <point x="185" y="306" type="line"/>
    </contour>
  </outline>
</glyph>
<glyph name="question" format="1">
  <advance width="1057"/>
  <unicode hex="003F"/>
  <outline>
    <contour>
      <point x="219" y="522" type="line"/>
      <point x="506" y="522" type="line"/>
      <point x="506" y="652" type="line"/>
      <point x="830" y="729"/>
      <point x="981" y="844"/>
      <point x="981" y="1099" type="curve" smooth="yes"/>
      <point x="981" y="1387"/>
      <point x="737" y="1503"/>
      <point x="464" y="1503" type="curve" smooth="yes"/>
      <point x="312" y="1503"/>
      <point x="152" y="1468"/>
      <point x="19" y="1406" type="curve"/>
      <point x="97" y="1159" type="line"/>
      <point x="173" y="1194"/>
      <point x="309" y="1229"/>
      <point x="427" y="1229" type="curve" smooth="yes"/>
      <point x="548" y="1229"/>
      <point x="647" y="1191"/>
      <point x="647" y="1085" type="curve" smooth="yes"/>
      <point x="647" y="924"/>
      <point x="423" y="857"/>
      <point x="219" y="811" type="curve"/>
    </contour>
    <contour>
      <point x="355" y="-19" type="curve" smooth="yes"/>
      <point x="464" y="-19"/>
      <point x="553" y="64"/>
      <point x="553" y="174" type="curve" smooth="yes"/>
      <point x="553" y="285"/>
      <point x="466" y="366"/>
      <point x="356" y="366" type="curve" smooth="yes"/>
      <point x="244" y="366"/>
      <point x="163" y="282"/>
      <point x="163" y="175" type="curve" smooth="yes"/>
      <point x="163" y="64"/>
      <point x="246" y="-19"/>
    </contour>
  </outline>
</glyph>
<glyph name="B" format="1">
  <advance width="1420"/>
  <unicode hex="0042"/>
  <outline>
    <contour>
      <point x="664" y="1485" type="move" name="top"/>
    </contour>
    <contour>
      <point x="169" y="0" type="line"/>
      <point x="688" y="0" type="line" smooth="yes"/>
      <point x="1021" y="0"/>
      <point x="1326" y="62"/>
      <point x="1326" y="438" type="curve" smooth="yes"/>
      <point x="1326" y="674"/>
      <point x="1162" y="749"/>
      <point x="961" y="783" type="curve"/>
      <point x="1133" y="801"/>
      <point x="1274" y="917"/>
      <point x="1274" y="1115" type="curve" smooth="yes"/>
      <point x="1274" y="1468"/>
      <point x="946" y="1485"/>
      <point x="659" y="1485" type="curve" smooth="yes"/>
      <point x="169" y="1485" type="line"/>
    </contour>
    <contour>
      <point x="535" y="245" type="curve"/>
      <point x="535" y="656" type="line"/>
      <point x="652" y="656" type="line" smooth="yes"/>
      <point x="821" y="656"/>
      <point x="970" y="644"/>
      <point x="970" y="436" type="curve" smooth="yes"/>
      <point x="970" y="258"/>
      <point x="837" y="244"/>
      <point x="704" y="244" type="curve" smooth="yes"/>
      <point x="683" y="244"/>
      <point x="614" y="245"/>
    </contour>
    <contour>
      <point x="535" y="880" type="line"/>
      <point x="535" y="1240" type="line"/>
      <point x="665" y="1240" type="line" smooth="yes"/>
      <point x="801" y="1240"/>
      <point x="953" y="1243"/>
      <point x="953" y="1066" type="curve" smooth="yes"/>
      <point x="953" y="902"/>
      <point x="779" y="880"/>
      <point x="653" y="880" type="curve" smooth="yes"/>
    </contour>
  </outline>
</glyph>
<glyph name="D" format="1">
  <advance width="1554"/>
  <unicode hex="0044"/>
  <outline>
    <contour>
      <point x="764" y="1485" type="move" name="top"/>
    </contour>
    <contour>
      <point x="535" y="251" type="line"/>
      <point x="535" y="1236" type="line"/>
      <point x="639" y="1236" type="line" smooth="yes"/>
      <point x="980" y="1236"/>
      <point x="1090" y="1083"/>
      <point x="1090" y="741" type="curve" smooth="yes"/>
      <point x="1090" y="398"/>
      <point x="981" y="251"/>
      <point x="639" y="251" type="curve" smooth="yes"/>
    </contour>
    <contour>
      <point x="169" y="0" type="line"/>
      <point x="669" y="0" type="line" smooth="yes"/>
      <point x="1164" y="0"/>
      <point x="1458" y="230"/>
      <point x="1458" y="738" type="curve" smooth="yes"/>
      <point x="1458" y="1253"/>
      <point x="1175" y="1485"/>
      <point x="669" y="1485" type="curve" smooth="yes"/>
      <point x="169" y="1485" type="line"/>
    </contour>
  </outline>
</glyph>
<glyph name="E" format="1">
  <advance width="1246"/>
  <unicode hex="0045"/>
  <outline>
    <contour>
      <point x="684" y="1485" type="move" name="top"/>
    </contour>
    <contour>
      <point x="722" y="0" type="move" name="bot"/>
    </contour>
    <contour>
      <point x="169" y="0" type="line"/>
      <point x="1140" y="0" type="line"/>
      <point x="1140" y="267" type="line"/>
      <point x="535" y="267" type="line"/>
      <point x="535" y="651" type="line"/>
      <point x="1076" y="651" type="line"/>
      <point x="1076" y="878" type="line"/>
      <point x="535" y="878" type="line"/>
      <point x="535" y="1220" type="line"/>
      <point x="1148" y="1220" type="line"/>
      <point x="1148" y="1485" type="line"/>
      <point x="169" y="1485" type="line"/>
    </contour>
  </outline>
</glyph>
<glyph name="J" format="1">
  <advance width="853"/>
  <unicode hex="004A"/>
  <outline>
    <contour>
      <point x="506" y="1485" type="move" name="top"/>
    </contour>
    <contour>
      <point x="86" y="-315" type="line"/>
      <point x="477" y="-299"/>
      <point x="679" y="-136"/>
      <point x="679" y="282" type="curve" smooth="yes"/>
      <point x="679" y="1485" type="line"/>
      <point x="312" y="1485" type="line"/>
      <point x="312" y="286" type="line" smooth="yes"/>
      <point x="312" y="33"/>
      <point x="233" y="-34"/>
      <point x="14" y="-69" type="curve"/>
    </contour>
  </outline>
</glyph>
<glyph name="K" format="1">
  <advance width="1427"/>
  <unicode hex="004B"/>
  <outline>
    <contour>
      <point x="743" y="1485" type="move" name="top"/>
    </contour>
    <contour>
      <point x="754" y="0" type="move" name="bot"/>
    </contour>
    <contour>
      <point x="169" y="0" type="line"/>
      <point x="535" y="0" type="line"/>
      <point x="535" y="651" type="line"/>
      <point x="556" y="651" type="line"/>
      <point x="1012" y="0" type="line"/>
      <point x="1444" y="0" type="line"/>
      <point x="906" y="743" type="line"/>
      <point x="1413" y="1485" type="line"/>
      <point x="1008" y="1485" type="line"/>
      <point x="559" y="837" type="line"/>
      <point x="535" y="837" type="line"/>
      <point x="535" y="1485" type="line"/>
      <point x="169" y="1485" type="line"/>
    </contour>
  </outline>
</glyph>
<glyph name="L" format="1">
  <advance width="1129"/>
  <unicode hex="004C"/>
  <outline>
    <contour>
      <point x="388" y="1485" type="move" name="top"/>
    </contour>
    <contour>
      <point x="519" y="1098" type="move" name="caron.alt"/>
    </contour>
    <contour>
      <point x="645" y="0" type="move" name="bot"/>
    </contour>
    <contour>
      <point x="169" y="0" type="line"/>
      <point x="1110" y="0" type="line"/>
      <point x="1110" y="266" type="line"/>
      <point x="534" y="266" type="line"/>
      <point x="534" y="1485" type="line"/>
      <point x="169" y="1485" type="line"/>
    </contour>
  </outline>
</glyph>
<glyph name="R" format="1">
  <advance width="1491"/>
  <unicode hex="0052"/>
  <outline>
    <contour>
      <point x="669" y="1485" type="move" name="top"/>
    </contour>
    <contour>
      <point x="748" y="0" type="move" name="bot"/>
    </contour>
    <contour>
      <point x="169" y="0" type="line"/>
      <point x="535" y="0" type="line"/>
      <point x="535" y="637" type="line"/>
      <point x="702" y="637" type="line" smooth="yes"/>
      <point x="884" y="637"/>
      <point x="951" y="591"/>
      <point x="972" y="398" type="curve" smooth="yes"/>
      <point x="1017" y="0" type="line"/>
      <point x="1391" y="0" type="line"/>
      <point x="1335" y="474" type="line" smooth="yes"/>
      <point x="1314" y="651"/>
      <point x="1230" y="749"/>
      <point x="1064" y="773" type="curve"/>
      <point x="1242" y="794"/>
      <point x="1348" y="900"/>
      <point x="1348" y="1098" type="curve" smooth="yes"/>
      <point x="1348" y="1341"/>
      <point x="1256" y="1485"/>
      <point x="736" y="1485" type="curve" smooth="yes"/>
      <point x="169" y="1485" type="line"/>
    </contour>
    <contour>
      <point x="535" y="867" type="line"/>
      <point x="535" y="1265" type="line"/>
      <point x="683" y="1265" type="line" smooth="yes"/>
      <point x="896" y="1265"/>
      <point x="979" y="1217"/>
      <point x="979" y="1054" type="curve" smooth="yes"/>
      <point x="979" y="906"/>
      <point x="850" y="867"/>
      <point x="673" y="867" type="curve" smooth="yes"/>
    </contour>
  </outline>
</glyph>
<glyph name="Y" format="1">
  <advance width="1319"/>
  <unicode hex="0059"/>
  <outline>
    <contour>
      <point x="672" y="1461" type="move" name="top"/>
    </contour>
    <contour>
      <point x="475" y="0" type="line"/>
      <point x="831" y="0" type="line"/>
      <point x="831" y="560" type="line"/>
      <point x="1310" y="1485" type="line"/>
      <point x="951" y="1485" type="line"/>
      <point x="660" y="908" type="line"/>
      <point x="374" y="1485" type="line"/>
      <point x="9" y="1485" type="line"/>
      <point x="475" y="560" type="line"/>
    </contour>
  </outline>
</glyph>
<glyph name="Z" format="1">
  <advance width="1162"/>
  <unicode hex="005A"/>
  <outline>
    <contour>
      <point x="586" y="1485" type="move" name="top"/>
    </contour>
    <contour>
      <point x="90" y="0" type="line"/>
      <point x="1096" y="0" type="line"/>
      <point x="1096" y="266" type="line"/>
      <point x="488" y="266" type="line"/>
      <point x="1090" y="1273" type="line"/>
      <point x="1090" y="1485" type="line"/>
      <point x="99" y="1485" type="line"/>
      <point x="99" y="1218" type="line"/>
      <point x="694" y="1218" type="line"/>
      <point x="90" y="236" type="line"/>
    </contour>
  </outline>
</glyph>
<glyph name="backslash" format="1">
  <advance width="1208"/>
  <unicode hex="005C"/>
  <outline>
    <contour>
      <point x="731" y="-136" type="line"/>
      <point x="1049" y="-27" type="line"/>
      <point x="515" y="1588" type="line"/>
      <point x="196" y="1479" type="line"/>
    </contour>
  </outline>
</glyph>
<glyph name="bracketright" format="1">
  <advance width="977"/>
  <unicode hex="005D"/>
  <outline>
    <contour>
      <point x="94" y="-130" type="line"/>
      <point x="810" y="-130" type="line"/>
      <point x="810" y="1674" type="line"/>
      <point x="94" y="1674" type="line"/>
      <point x="94" y="1490" type="line"/>
      <point x="483" y="1490" type="line"/>
      <point x="483" y="54" type="line"/>
      <point x="94" y="54" type="line"/>
    </contour>
  </outline>
</glyph>
<glyph name="grave" format="1">
  <advance width="926"/>
  <unicode hex="0060"/>
  <outline>
    <contour>
      <point x="510" y="1098" type="move" name="_top"/>
    </contour>
    <contour>
      <point x="534" y="1275" type="line"/>
      <point x="643" y="1412" type="line"/>
      <point x="180" y="1823" type="line"/>
      <point x="-1" y="1591" type="line"/>
    </contour>
  </outline>
</glyph>
<glyph name="a" format="1">
  <advance width="1204"/>
  <unicode hex="0061"/>
  <outline>
    <contour>
      <point x="605" y="1099" type="move" name="top"/>
    </contour>
    <contour>
      <point x="80" y="325" type="curve" smooth="yes"/>
      <point x="80" y="91"/>
      <point x="228" y="-20"/>
      <point x="453" y="-20" type="curve" smooth="yes"/>
      <point x="621" y="-20"/>
      <point x="711" y="83"/>
      <point x="748" y="166" type="curve"/>
      <point x="803" y="0" type="line"/>
      <point x="1071" y="0" type="line"/>
      <point x="1071" y="644" type="line" smooth="yes"/>
      <point x="1071" y="972"/>
      <point x="927" y="1116"/>
      <point x="608" y="1116" type="curve" smooth="yes"/>
      <point x="463" y="1116"/>
      <point x="300" y="1083"/>
      <point x="141" y="1026" type="curve"/>
      <point x="204" y="811" type="line"/>
      <point x="326" y="860"/>
      <point x="436" y="885"/>
      <point x="534" y="885" type="curve" smooth="yes"/>
      <point x="686" y="885"/>
      <point x="727" y="812"/>
      <point x="727" y="683" type="curve" smooth="yes"/>
      <point x="727" y="639" type="line"/>
      <point x="664" y="656"/>
      <point x="579" y="663"/>
      <point x="505" y="663" type="curve" smooth="yes"/>
      <point x="303" y="663"/>
      <point x="79" y="591"/>
    </contour>
    <contour>
      <point x="527" y="189" type="curve" smooth="yes"/>
      <point x="424" y="189"/>
      <point x="374" y="252"/>
      <point x="374" y="350" type="curve" smooth="yes"/>
      <point x="374" y="463"/>
      <point x="471" y="492"/>
      <point x="576" y="492" type="curve" smooth="yes"/>
      <point x="628" y="492"/>
      <point x="693" y="486"/>
      <point x="727" y="478" type="curve"/>
      <point x="727" y="279" type="line"/>
      <point x="670" y="230"/>
      <point x="608" y="189"/>
    </contour>
  </outline>
</glyph>
<glyph name="b" format="1">
  <advance width="1325"/>
  <unicode hex="0062"/>
  <outline>
    <contour>
      <point x="779" y="1099" type="move" name="top"/>
    </contour>
    <contour>
      <point x="774" y="-20" type="curve" smooth="yes"/>
      <point x="1025" y="-20"/>
      <point x="1241" y="178"/>
      <point x="1241" y="554" type="curve" smooth="yes"/>
      <point x="1241" y="916"/>
      <point x="1071" y="1116"/>
      <point x="817" y="1116" type="curve" smooth="yes"/>
      <point x="695" y="1116"/>
      <point x="584" y="1080"/>
      <point x="491" y="1008" type="curve"/>
      <point x="491" y="1549" type="line"/>
      <point x="143" y="1490" type="line"/>
      <point x="143" y="0" type="line"/>
      <point x="385" y="0" type="line"/>
      <point x="433" y="128" type="line"/>
      <point x="518" y="48"/>
      <point x="632" y="-20"/>
    </contour>
    <contour>
      <point x="680" y="194" type="curve" smooth="yes"/>
      <point x="606" y="194"/>
      <point x="544" y="227"/>
      <point x="491" y="277" type="curve"/>
      <point x="491" y="813" type="line"/>
      <point x="564" y="875"/>
      <point x="632" y="898"/>
      <point x="704" y="898" type="curve" smooth="yes"/>
      <point x="821" y="898"/>
      <point x="896" y="809"/>
      <point x="896" y="552" type="curve" smooth="yes"/>
      <point x="896" y="299"/>
      <point x="796" y="194"/>
    </contour>
  </outline>
</glyph>
<glyph name="c" format="1">
  <advance width="1059"/>
  <unicode hex="0063"/>
  <outline>
    <contour>
      <point x="608" y="1099" type="move" name="top"/>
    </contour>
    <contour>
      <point x="613" y="-3" type="move" name="bot"/>
    </contour>
    <contour>
      <point x="647" y="1116" type="curve" smooth="yes"/>
      <point x="344" y="1116"/>
      <point x="84" y="918"/>
      <point x="84" y="555" type="curve" smooth="yes"/>
      <point x="84" y="191"/>
      <point x="346" y="-20"/>
      <point x="651" y="-20" type="curve" smooth="yes"/>
      <point x="774" y="-20"/>
      <point x="896" y="14"/>
      <point x="1004" y="84" type="curve"/>
      <point x="911" y="278" type="line"/>
      <point x="846" y="239"/>
      <point x="777" y="216"/>
      <point x="709" y="216" type="curve" smooth="yes"/>
      <point x="545" y="216"/>
      <point x="435" y="343"/>
      <point x="435" y="554" type="curve" smooth="yes"/>
      <point x="435" y="761"/>
      <point x="548" y="878"/>
      <point x="707" y="878" type="curve" smooth="yes"/>
      <point x="779" y="878"/>
      <point x="854" y="855"/>
      <point x="919" y="811" type="curve"/>
      <point x="1004" y="1018" type="line"/>
      <point x="895" y="1091"/>
      <point x="772" y="1116"/>
    </contour>
  </outline>
</glyph>
<glyph name="d" format="1">
  <advance width="1310"/>
  <unicode hex="0064"/>
  <outline>
    <contour>
      <point x="532" y="1099" type="move" name="top"/>
    </contour>
    <contour>
      <point x="1090" y="1098" type="move" name="caron.alt"/>
    </contour>
    <contour>
      <point x="989" y="1310" type="move" name="mid"/>
    </contour>
    <contour>
      <point x="551" y="-20" type="curve" smooth="yes"/>
      <point x="688" y="-20"/>
      <point x="800" y="43"/>
      <point x="883" y="119" type="curve"/>
      <point x="930" y="0" type="line"/>
      <point x="1172" y="0" type="line"/>
      <point x="1172" y="1549" type="line"/>
      <point x="824" y="1490" type="line"/>
      <point x="824" y="1017" type="line"/>
      <point x="733" y="1083"/>
      <point x="625" y="1116"/>
      <point x="508" y="1116" type="curve" smooth="yes"/>
      <point x="254" y="1116"/>
      <point x="84" y="914"/>
      <point x="84" y="554" type="curve" smooth="yes"/>
      <point x="84" y="178"/>
      <point x="300" y="-20"/>
    </contour>
    <contour>
      <point x="644" y="194" type="curve" smooth="yes"/>
      <point x="527" y="198"/>
      <point x="430" y="303"/>
      <point x="430" y="552" type="curve" smooth="yes"/>
      <point x="430" y="809"/>
      <point x="504" y="896"/>
      <point x="621" y="896" type="curve" smooth="yes"/>
      <point x="690" y="896"/>
      <point x="755" y="874"/>
      <point x="824" y="819" type="curve"/>
      <point x="824" y="267" type="line"/>
      <point x="772" y="222"/>
      <point x="713" y="192"/>
    </contour>
  </outline>
</glyph>
<glyph name="f" format="1">
  <advance width="865"/>
  <unicode hex="0066"/>
  <outline>
    <contour>
      <point x="401" y="1490" type="move" name="top"/>
    </contour>
    <contour>
      <point x="602" y="1574" type="curve" smooth="yes"/>
      <point x="428" y="1574"/>
      <point x="211" y="1494"/>
      <point x="211" y="1129" type="curve" smooth="yes"/>
      <point x="211" y="1096" type="line"/>
      <point x="28" y="1096" type="line"/>
      <point x="28" y="909" type="line"/>
      <point x="211" y="909" type="line"/>
      <point x="211" y="0" type="line"/>
      <point x="556" y="0" type="line"/>
      <point x="556" y="909" type="line"/>
      <point x="859" y="909" type="line"/>
      <point x="859" y="1096" type="line"/>
      <point x="556" y="1096" type="line"/>
      <point x="556" y="1162" type="line" smooth="yes"/>
      <point x="556" y="1291"/>
      <point x="629" y="1320"/>
      <point x="706" y="1321" type="curve" smooth="yes"/>
      <point x="751" y="1321"/>
      <point x="805" y="1309"/>
      <point x="851" y="1294" type="curve"/>
      <point x="902" y="1503" type="line"/>
      <point x="834" y="1543"/>
      <point x="726" y="1573"/>
    </contour>
  </outline>
</glyph>
<glyph name="g" format="1">
  <advance width="1190"/>
  <unicode hex="0067"/>
  <outline>
    <contour>
      <point x="572" y="1099" type="move" name="top"/>
    </contour>
    <contour>
      <point x="509" y="-471" type="curve" smooth="yes"/>
      <point x="807" y="-471"/>
      <point x="1133" y="-418"/>
      <point x="1133" y="-133" type="curve" smooth="yes"/>
      <point x="1133" y="168"/>
      <point x="961" y="230"/>
      <point x="737" y="230" type="curve" smooth="yes"/>
      <point x="422" y="230" type="line"/>
      <point x="419" y="236"/>
      <point x="405" y="259"/>
      <point x="405" y="295" type="curve" smooth="yes"/>
      <point x="405" y="329"/>
      <point x="423" y="360"/>
      <point x="427" y="365" type="curve"/>
      <point x="443" y="364"/>
      <point x="498" y="353"/>
      <point x="580" y="353" type="curve" smooth="yes"/>
      <point x="867" y="353"/>
      <point x="1027" y="499"/>
      <point x="1027" y="738" type="curve" smooth="yes"/>
      <point x="1027" y="814"/>
      <point x="992" y="869"/>
      <point x="965" y="900" type="curve"/>
      <point x="1182" y="917" type="line"/>
      <point x="1182" y="1098"/>
      <point x="1172" y="1118"/>
      <point x="1168" y="1118" type="curve" smooth="yes"/>
      <point x="1038" y="1118"/>
      <point x="951" y="1105"/>
      <point x="833" y="1054" type="curve"/>
      <point x="760" y="1092"/>
      <point x="717" y="1116"/>
      <point x="562" y="1116" type="curve" smooth="yes"/>
      <point x="252" y="1116"/>
      <point x="99" y="962"/>
      <point x="99" y="730" type="curve" smooth="yes"/>
      <point x="99" y="560"/>
      <point x="191" y="490"/>
      <point x="265" y="449" type="curve"/>
      <point x="236" y="425"/>
      <point x="136" y="336"/>
      <point x="136" y="210" type="curve" smooth="yes"/>
      <point x="136" y="132"/>
      <point x="170" y="73"/>
      <point x="257" y="46" type="curve"/>
      <point x="164" y="19"/>
      <point x="88" y="-57"/>
      <point x="88" y="-177" type="curve" smooth="yes"/>
      <point x="88" y="-436"/>
      <point x="320" y="-471"/>
    </contour>
    <contour>
      <point x="548" y="-255" type="curve" smooth="yes"/>
      <point x="403" y="-255"/>
      <point x="371" y="-204"/>
      <point x="371" y="-125" type="curve" smooth="yes"/>
      <point x="371" y="-66"/>
      <point x="397" y="-15"/>
      <point x="423" y="11" type="curve"/>
      <point x="657" y="11" type="line" smooth="yes"/>
      <point x="790" y="11"/>
      <point x="837" y="0"/>
      <point x="837" y="-100" type="curve" smooth="yes"/>
      <point x="837" y="-267"/>
      <point x="660" y="-255"/>
    </contour>
    <contour>
      <point x="586" y="566" type="curve" smooth="yes"/>
      <point x="454" y="566"/>
      <point x="394" y="633"/>
      <point x="394" y="749" type="curve" smooth="yes"/>
      <point x="394" y="863"/>
      <point x="461" y="912"/>
      <point x="589" y="912" type="curve" smooth="yes"/>
      <point x="705" y="912"/>
      <point x="760" y="855"/>
      <point x="760" y="738" type="curve" smooth="yes"/>
      <point x="760" y="638"/>
      <point x="699" y="566"/>
    </contour>
  </outline>
</glyph>
<glyph name="h" format="1">
  <advance width="1308"/>
  <unicode hex="0068"/>
  <outline>
    <contour>
      <point x="806" y="1099" type="move" name="top"/>
    </contour>
    <contour>
      <point x="142" y="0" type="line"/>
      <point x="487" y="0" type="line"/>
      <point x="487" y="777" type="line"/>
      <point x="553" y="839"/>
      <point x="623" y="877"/>
      <point x="695" y="877" type="curve" smooth="yes"/>
      <point x="789" y="877"/>
      <point x="831" y="828"/>
      <point x="831" y="691" type="curve" smooth="yes"/>
      <point x="831" y="0" type="line"/>
      <point x="1177" y="0" type="line"/>
      <point x="1177" y="707" type="line" smooth="yes"/>
      <point x="1177" y="1045"/>
      <point x="986" y="1116"/>
      <point x="818" y="1116" type="curve" smooth="yes"/>
      <point x="691" y="1116"/>
      <point x="578" y="1067"/>
      <point x="487" y="1001" type="curve"/>
      <point x="487" y="1549" type="line"/>
      <point x="142" y="1490" type="line"/>
    </contour>
  </outline>
</glyph>
<glyph name="i" format="1">
  <advance width="659"/>
  <unicode hex="0069"/>
  <outline>
    <contour>
      <point x="162" y="0" type="line"/>
      <point x="508" y="0" type="line"/>
      <point x="508" y="1096" type="line"/>
      <point x="162" y="1096" type="line"/>
    </contour>
    <contour>
      <point x="336" y="1277" type="curve" smooth="yes"/>
      <point x="444" y="1277"/>
      <point x="530" y="1360"/>
      <point x="530" y="1461" type="curve" smooth="yes"/>
      <point x="530" y="1568"/>
      <point x="442" y="1645"/>
      <point x="336" y="1645" type="curve" smooth="yes"/>
      <point x="229" y="1645"/>
      <point x="145" y="1568"/>
      <point x="145" y="1461" type="curve" smooth="yes"/>
      <point x="145" y="1364"/>
      <point x="225" y="1277"/>
    </contour>
  </outline>
</glyph>
<glyph name="l" format="1">
  <advance width="644"/>
  <unicode hex="006C"/>
  <outline>
    <contour>
      <point x="311" y="1490" type="move" name="top"/>
    </contour>
    <contour>
      <point x="495" y="1103" type="move" name="caron.alt"/>
    </contour>
    <contour>
      <point x="153" y="0" type="line"/>
      <point x="499" y="0" type="line"/>
      <point x="499" y="1549" type="line"/>
      <point x="153" y="1490" type="line"/>
    </contour>
  </outline>
</glyph>
<glyph name="m" format="1">
  <advance width="1960"/>
  <unicode hex="006D"/>
  <outline>
    <contour>
      <point x="1090" y="1099" type="move" name="top"/>
    </contour>
    <contour>
      <point x="142" y="0" type="line"/>
      <point x="487" y="0" type="line"/>
      <point x="487" y="779" type="line"/>
      <point x="548" y="849"/>
      <point x="614" y="886"/>
      <point x="680" y="886" type="curve" smooth="yes"/>
      <point x="770" y="885"/>
      <point x="814" y="840"/>
      <point x="814" y="705" type="curve" smooth="yes"/>
      <point x="814" y="0" type="line"/>
      <point x="1161" y="0" type="line"/>
      <point x="1161" y="704" type="line" smooth="yes"/>
      <point x="1161" y="732"/>
      <point x="1159" y="762"/>
      <point x="1156" y="790" type="curve"/>
      <point x="1215" y="856"/>
      <point x="1279" y="886"/>
      <point x="1349" y="886" type="curve" smooth="yes"/>
      <point x="1440" y="885"/>
      <point x="1483" y="840"/>
      <point x="1483" y="705" type="curve" smooth="yes"/>
      <point x="1483" y="0" type="line"/>
      <point x="1829" y="0" type="line"/>
      <point x="1829" y="703" type="line" smooth="yes"/>
      <point x="1829" y="1035"/>
      <point x="1632" y="1116"/>
      <point x="1474" y="1116" type="curve" smooth="yes"/>
      <point x="1337" y="1116"/>
      <point x="1209" y="1057"/>
      <point x="1108" y="952" type="curve"/>
      <point x="1040" y="1076"/>
      <point x="916" y="1116"/>
      <point x="806" y="1116" type="curve" smooth="yes"/>
      <point x="672" y="1116"/>
      <point x="550" y="1056"/>
      <point x="448" y="955" type="curve"/>
      <point x="405" y="1096" type="line"/>
      <point x="142" y="1096" type="line"/>
    </contour>
  </outline>
</glyph>
<glyph name="o" format="1">
  <advance width="1266"/>
  <unicode hex="006F"/>
  <outline>
    <contour>
      <point x="635" y="1096" type="move" name="top"/>
    </contour>
    <contour>
      <point x="633" y="219" type="curve" smooth="yes"/>
      <point x="496" y="219"/>
      <point x="433" y="350"/>
      <point x="433" y="552" type="curve" smooth="yes"/>
      <point x="433" y="752"/>
      <point x="496" y="877"/>
      <point x="633" y="877" type="curve" smooth="yes"/>
      <point x="771" y="877"/>
      <point x="834" y="752"/>
      <point x="834" y="552" type="curve" smooth="yes"/>
      <point x="834" y="350"/>
      <point x="770" y="219"/>
    </contour>
    <contour>
      <point x="633" y="-20" type="curve" smooth="yes"/>
      <point x="973" y="-20"/>
      <point x="1181" y="192"/>
      <point x="1181" y="549" type="curve" smooth="yes"/>
      <point x="1181" y="911"/>
      <point x="969" y="1116"/>
      <point x="633" y="1116" type="curve" smooth="yes"/>
      <point x="298" y="1116"/>
      <point x="84" y="911"/>
      <point x="84" y="549" type="curve" smooth="yes"/>
      <point x="84" y="192"/>
      <point x="294" y="-20"/>
    </contour>
  </outline>
</glyph>
<glyph name="p" format="1">
  <advance width="1291"/>
  <unicode hex="0070"/>
  <outline>
    <contour>
      <point x="719" y="1099" type="move" name="top"/>
    </contour>
    <contour>
      <point x="141" y="-481" type="line"/>
      <point x="488" y="-430" type="line"/>
      <point x="488" y="58" type="line"/>
      <point x="558" y="12"/>
      <point x="642" y="-20"/>
      <point x="740" y="-20" type="curve" smooth="yes"/>
      <point x="991" y="-20"/>
      <point x="1207" y="180"/>
      <point x="1207" y="554" type="curve" smooth="yes"/>
      <point x="1207" y="913"/>
      <point x="1037" y="1116"/>
      <point x="783" y="1116" type="curve" smooth="yes"/>
      <point x="648" y="1116"/>
      <point x="528" y="1073"/>
      <point x="427" y="985" type="curve"/>
      <point x="382" y="1096" type="line"/>
      <point x="141" y="1096" type="line"/>
    </contour>
    <contour>
      <point x="643" y="196" type="curve" smooth="yes"/>
      <point x="584" y="196"/>
      <point x="534" y="217"/>
      <point x="488" y="253" type="curve"/>
      <point x="488" y="833" type="line"/>
      <point x="549" y="877"/>
      <point x="608" y="896"/>
      <point x="671" y="896" type="curve" smooth="yes"/>
      <point x="787" y="896"/>
      <point x="862" y="806"/>
      <point x="862" y="552" type="curve" smooth="yes"/>
      <point x="862" y="291"/>
      <point x="758" y="196"/>
    </contour>
  </outline>
</glyph>
<glyph name="q" format="1">
  <advance width="1291"/>
  <unicode hex="0071"/>
  <outline>
    <contour>
      <point x="1151" y="-431" type="line"/>
      <point x="1151" y="1096" type="line"/>
      <point x="908" y="1096" type="line"/>
      <point x="864" y="985" type="line"/>
      <point x="763" y="1073"/>
      <point x="643" y="1116"/>
      <point x="508" y="1116" type="curve" smooth="yes"/>
      <point x="254" y="1116"/>
      <point x="84" y="913"/>
      <point x="84" y="554" type="curve" smooth="yes"/>
      <point x="84" y="180"/>
      <point x="300" y="-20"/>
      <point x="551" y="-20" type="curve" smooth="yes"/>
      <point x="649" y="-20"/>
      <point x="733" y="12"/>
      <point x="803" y="58" type="curve"/>
      <point x="803" y="-480" type="line"/>
    </contour>
    <contour>
      <point x="648" y="196" type="curve" smooth="yes"/>
      <point x="533" y="196"/>
      <point x="430" y="291"/>
      <point x="430" y="552" type="curve" smooth="yes"/>
      <point x="430" y="806"/>
      <point x="504" y="895"/>
      <point x="620" y="895" type="curve" smooth="yes"/>
      <point x="683" y="895"/>
      <point x="742" y="877"/>
      <point x="803" y="834" type="curve"/>
      <point x="803" y="253" type="line"/>
      <point x="757" y="217"/>
      <point x="707" y="196"/>
    </contour>
  </outline>
</glyph>
<glyph name="s" format="1">
  <advance width="1032"/>
  <unicode hex="0073"/>
  <outline>
    <contour>
      <point x="504" y="1098" type="move" name="top"/>
    </contour>
    <contour>
      <point x="541" y="-1" type="move" name="bot"/>
    </contour>
    <contour>
      <point x="626" y="307" type="curve" smooth="yes"/>
      <point x="624" y="243"/>
      <point x="576" y="211"/>
      <point x="487" y="211" type="curve" smooth="yes"/>
      <point x="384" y="211"/>
      <point x="261" y="259"/>
      <point x="164" y="319" type="curve"/>
      <point x="90" y="98" type="line"/>
      <point x="188" y="41"/>
      <point x="333" y="-20"/>
      <point x="532" y="-20" type="curve" smooth="yes"/>
      <point x="781" y="-20"/>
      <point x="958" y="86"/>
      <point x="958" y="336" type="curve" smooth="yes"/>
      <point x="958" y="465"/>
      <point x="903" y="554"/>
      <point x="673" y="643" type="curve" smooth="yes"/>
      <point x="488" y="714" type="line" smooth="yes"/>
      <point x="434" y="734"/>
      <point x="420" y="759"/>
      <point x="420" y="792" type="curve" smooth="yes"/>
      <point x="420" y="862"/>
      <point x="479" y="878"/>
      <point x="561" y="878" type="curve" smooth="yes"/>
      <point x="647" y="878"/>
      <point x="747" y="852"/>
      <point x="855" y="799" type="curve"/>
      <point x="935" y="1005" type="line"/>
      <point x="866" y="1050"/>
      <point x="723" y="1116"/>
      <point x="536" y="1116" type="curve" smooth="yes"/>
      <point x="239" y="1116"/>
      <point x="86" y="973"/>
      <point x="86" y="791" type="curve" smooth="yes"/>
      <point x="86" y="646"/>
      <point x="152" y="549"/>
      <point x="335" y="478" type="curve" smooth="yes"/>
      <point x="555" y="394" type="line" smooth="yes"/>
      <point x="612" y="374"/>
      <point x="627" y="347"/>
    </contour>
  </outline>
</glyph>
<glyph name="y" format="1">
  <advance width="1204"/>
  <unicode hex="0079"/>
  <outline>
    <contour>
      <point x="618" y="1096" type="move" name="top"/>
    </contour>
    <contour>
      <point x="226" y="-517" type="line"/>
      <point x="560" y="-494"/>
      <point x="681" y="-349"/>
      <point x="787" y="-29" type="curve" smooth="yes"/>
      <point x="1165" y="1096" type="line"/>
      <point x="834" y="1096" type="line"/>
      <point x="636" y="426" type="line"/>
      <point x="393" y="1096" type="line"/>
      <point x="43" y="1096" type="line"/>
      <point x="476" y="43" type="line"/>
      <point x="425" y="-159"/>
      <point x="368" y="-254"/>
      <point x="129" y="-283" type="curve"/>
    </contour>
  </outline>
</glyph>
<glyph name="z" format="1">
  <advance width="989"/>
  <unicode hex="007A"/>
  <outline>
    <contour>
      <point x="525" y="1096" type="move" name="top"/>
    </contour>
    <contour>
      <point x="92" y="0" type="line"/>
      <point x="914" y="0" type="line"/>
      <point x="914" y="261" type="line"/>
      <point x="478" y="261" type="line"/>
      <point x="904" y="879" type="line"/>
      <point x="904" y="1096" type="line"/>
      <point x="102" y="1096" type="line"/>
      <point x="102" y="833" type="line"/>
      <point x="524" y="833" type="line"/>
      <point x="92" y="221" type="line"/>
    </contour>
  </outline>
</glyph>
<glyph name="braceleft" format="1">
  <advance width="992"/>
  <unicode hex="007B"/>
  <outline>
    <contour>
      <point x="887" y="-231" type="curve"/>
      <point x="887" y="-9" type="line"/>
      <point x="704" y="8"/>
      <point x="663" y="22"/>
      <point x="662" y="238" type="curve" smooth="yes"/>
      <point x="659" y="572"/>
      <point x="559" y="638"/>
      <point x="427" y="673" type="curve"/>
      <point x="559" y="706"/>
      <point x="659" y="773"/>
      <point x="662" y="1107" type="curve" smooth="yes"/>
      <point x="663" y="1320"/>
      <point x="705" y="1338"/>
      <point x="887" y="1354" type="curve"/>
      <point x="887" y="1577" type="line"/>
      <point x="446" y="1577"/>
      <point x="277" y="1499"/>
      <point x="277" y="1080" type="curve" smooth="yes"/>
      <point x="277" y="849"/>
      <point x="268" y="796"/>
      <point x="74" y="767" type="curve"/>
      <point x="74" y="577" type="line"/>
      <point x="268" y="550"/>
      <point x="277" y="497"/>
      <point x="277" y="265" type="curve" smooth="yes"/>
      <point x="277" y="-154"/>
      <point x="446" y="-231"/>
    </contour>
  </outline>
</glyph>
<glyph name="braceright" format="1">
  <advance width="992"/>
  <unicode hex="007D"/>
  <outline>
    <contour>
      <point x="106" y="-231" type="line"/>
      <point x="548" y="-231"/>
      <point x="715" y="-154"/>
      <point x="715" y="265" type="curve" smooth="yes"/>
      <point x="715" y="497"/>
      <point x="726" y="550"/>
      <point x="919" y="577" type="curve"/>
      <point x="919" y="767" type="line"/>
      <point x="725" y="796"/>
      <point x="715" y="849"/>
      <point x="715" y="1080" type="curve" smooth="yes"/>
      <point x="715" y="1499"/>
      <point x="548" y="1577"/>
      <point x="106" y="1577" type="curve"/>
      <point x="106" y="1354" type="line"/>
      <point x="288" y="1338"/>
      <point x="331" y="1320"/>
      <point x="331" y="1107" type="curve" smooth="yes"/>
      <point x="334" y="773"/>
      <point x="433" y="706"/>
      <point x="565" y="673" type="curve"/>
      <point x="433" y="638"/>
      <point x="334" y="572"/>
      <point x="331" y="238" type="curve" smooth="yes"/>
      <point x="331" y="22"/>
      <point x="289" y="8"/>
      <point x="106" y="-9" type="curve"/>
    </contour>
  </outline>
</glyph>
<glyph name="asciitilde" format="1">
  <advance width="1176"/>
  <unicode hex="007E"/>
  <outline>
    <contour>
      <point x="165" y="561" type="curve"/>
      <point x="281" y="561" type="line"/>
      <point x="281" y="645"/>
      <point x="311" y="673"/>
      <point x="360" y="673" type="curve" smooth="yes"/>
      <point x="461" y="673"/>
      <point x="649" y="549"/>
      <point x="839" y="549" type="curve" smooth="yes"/>
      <point x="975" y="549"/>
      <point x="1057" y="680"/>
      <point x="1057" y="878" type="curve"/>
      <point x="940" y="878" type="line"/>
      <point x="940" y="807"/>
      <point x="911" y="784"/>
      <point x="863" y="784" type="curve" smooth="yes"/>
      <point x="759" y="784"/>
      <point x="565" y="899"/>
      <point x="381" y="903" type="curve" smooth="yes"/>
      <point x="238" y="903"/>
      <point x="165" y="780"/>
    </contour>
  </outline>
</glyph>
<glyph name="sterling" format="1">
  <advance width="1181"/>
  <unicode hex="00A3"/>
  <outline>
    <contour>
      <point x="167" y="0" type="line"/>
      <point x="1027" y="0" type="line"/>
      <point x="1027" y="265" type="line"/>
      <point x="479" y="265" type="line"/>
      <point x="527" y="302"/>
      <point x="566" y="345"/>
      <point x="585" y="395" type="curve" smooth="yes"/>
      <point x="604" y="432"/>
      <point x="614" y="476"/>
      <point x="609" y="537" type="curve"/>
      <point x="913" y="537" type="line"/>
      <point x="913" y="679" type="line"/>
      <point x="593" y="679" type="line"/>
      <point x="554" y="732"/>
      <point x="521" y="804"/>
      <point x="521" y="864" type="curve" smooth="yes"/>
      <point x="521" y="951"/>
      <point x="611" y="989"/>
      <point x="717" y="989" type="curve" smooth="yes"/>
      <point x="802" y="989"/>
      <point x="898" y="966"/>
      <point x="971" y="922" type="curve"/>
      <point x="1060" y="1119" type="line"/>
      <point x="995" y="1166"/>
      <point x="882" y="1248"/>
      <point x="654" y="1248" type="curve" smooth="yes"/>
      <point x="357" y="1248"/>
      <point x="207" y="1110"/>
      <point x="207" y="906" type="curve" smooth="yes"/>
      <point x="207" y="786"/>
      <point x="276" y="711"/>
      <point x="309" y="675" type="curve"/>
      <point x="158" y="675" type="line"/>
      <point x="158" y="537" type="line"/>
      <point x="336" y="538" type="line"/>
      <point x="340" y="476"/>
      <point x="329" y="425"/>
      <point x="305" y="386" type="curve" smooth="yes"/>
      <point x="281" y="331"/>
      <point x="231" y="286"/>
      <point x="167" y="259" type="curve"/>
    </contour>
  </outline>
</glyph>
<glyph name="brokenbar" format="1">
  <advance width="798"/>
  <unicode hex="00A6"/>
  <outline>
    <contour>
      <point x="249" y="-156" type="line"/>
      <point x="553" y="-156" type="line"/>
      <point x="553" y="555" type="line"/>
      <point x="249" y="555" type="line"/>
    </contour>
    <contour>
      <point x="249" y="873" type="line"/>
      <point x="553" y="873" type="line"/>
      <point x="553" y="1583" type="line"/>
      <point x="249" y="1583" type="line"/>
    </contour>
  </outline>
</glyph>
<glyph name="section" format="1">
  <advance width="1117"/>
  <unicode hex="00A7"/>
  <outline>
    <contour>
      <point x="550" y="-106" type="curve" smooth="yes"/>
      <point x="746" y="-106"/>
      <point x="970" y="-28"/>
      <point x="970" y="214" type="curve" smooth="yes"/>
      <point x="970" y="305"/>
      <point x="937" y="417"/>
      <point x="802" y="476" type="curve"/>
      <point x="914" y="512"/>
      <point x="968" y="602"/>
      <point x="968" y="701" type="curve" smooth="yes"/>
      <point x="968" y="832"/>
      <point x="914" y="918"/>
      <point x="661" y="1014" type="curve" smooth="yes"/>
      <point x="515" y="1069" type="line" smooth="yes"/>
      <point x="433" y="1099"/>
      <point x="404" y="1128"/>
      <point x="404" y="1167" type="curve" smooth="yes"/>
      <point x="404" y="1235"/>
      <point x="461" y="1268"/>
      <point x="572" y="1268" type="curve" smooth="yes"/>
      <point x="669" y="1268"/>
      <point x="786" y="1236"/>
      <point x="859" y="1196" type="curve"/>
      <point x="934" y="1390" type="line"/>
      <point x="820" y="1460"/>
      <point x="658" y="1501"/>
      <point x="524" y="1501" type="curve" smooth="yes"/>
      <point x="313" y="1501"/>
      <point x="119" y="1411"/>
      <point x="119" y="1202" type="curve" smooth="yes"/>
      <point x="119" y="1086"/>
      <point x="173" y="999"/>
      <point x="292" y="950" type="curve"/>
      <point x="154" y="912"/>
      <point x="119" y="792"/>
      <point x="119" y="725" type="curve" smooth="yes"/>
      <point x="119" y="576"/>
      <point x="159" y="497"/>
      <point x="416" y="412" type="curve" smooth="yes"/>
      <point x="576" y="358" type="line"/>
      <point x="678" y="326"/>
      <point x="705" y="301"/>
      <point x="705" y="239" type="curve" smooth="yes"/>
      <point x="705" y="170"/>
      <point x="656" y="115"/>
      <point x="533" y="115" type="curve" smooth="yes"/>
      <point x="405" y="115"/>
      <point x="275" y="161"/>
      <point x="195" y="217" type="curve"/>
      <point x="117" y="25" type="line"/>
      <point x="227" y="-71"/>
      <point x="454" y="-106"/>
    </contour>
    <contour>
      <point x="540" y="617" type="curve" smooth="yes"/>
      <point x="425" y="617"/>
      <point x="370" y="636"/>
      <point x="370" y="707" type="curve" smooth="yes"/>
      <point x="370" y="781"/>
      <point x="425" y="799"/>
      <point x="540" y="799" type="curve" smooth="yes"/>
      <point x="656" y="799"/>
      <point x="712" y="781"/>
      <point x="712" y="707" type="curve" smooth="yes"/>
      <point x="712" y="636"/>
      <point x="655" y="617"/>
    </contour>
  </outline>
</glyph>
<glyph name="copyright" format="1">
  <advance width="1827"/>
  <unicode hex="00A9"/>
  <outline>
    <contour>
      <point x="910" y="1231" type="curve" smooth="yes"/>
      <point x="622" y="1229"/>
      <point x="441" y="1040"/>
      <point x="441" y="763" type="curve" smooth="yes"/>
      <point x="441" y="481"/>
      <point x="624" y="294"/>
      <point x="914" y="294" type="curve" smooth="yes"/>
      <point x="1048" y="294"/>
      <point x="1200" y="350"/>
      <point x="1271" y="427" type="curve"/>
      <point x="1198" y="538" type="line"/>
      <point x="1131" y="462"/>
      <point x="1022" y="419"/>
      <point x="919" y="419" type="curve" smooth="yes"/>
      <point x="729" y="419"/>
      <point x="612" y="545"/>
      <point x="612" y="763" type="curve" smooth="yes"/>
      <point x="612" y="981"/>
      <point x="727" y="1105"/>
      <point x="916" y="1106" type="curve" smooth="yes"/>
      <point x="1020" y="1107"/>
      <point x="1126" y="1066"/>
      <point x="1189" y="995" type="curve"/>
      <point x="1275" y="1096" type="line"/>
      <point x="1205" y="1175"/>
      <point x="1052" y="1231"/>
    </contour>
    <contour>
      <point x="914" y="126" type="curve" smooth="yes"/>
      <point x="525" y="126"/>
      <point x="284" y="361"/>
      <point x="284" y="751" type="curve" smooth="yes"/>
      <point x="284" y="1142"/>
      <point x="525" y="1376"/>
      <point x="914" y="1376" type="curve" smooth="yes"/>
      <point x="1302" y="1376"/>
      <point x="1543" y="1142"/>
      <point x="1543" y="751" type="curve" smooth="yes"/>
      <point x="1543" y="361"/>
      <point x="1302" y="126"/>
    </contour>
    <contour>
      <point x="914" y="-15" type="curve" smooth="yes"/>
      <point x="1406" y="-15"/>
      <point x="1720" y="288"/>
      <point x="1720" y="751" type="curve" smooth="yes"/>
      <point x="1720" y="1215"/>
      <point x="1406" y="1518"/>
      <point x="914" y="1518" type="curve" smooth="yes"/>
      <point x="422" y="1518"/>
      <point x="108" y="1215"/>
      <point x="108" y="751" type="curve" smooth="yes"/>
      <point x="108" y="288"/>
      <point x="422" y="-15"/>
    </contour>
  </outline>
</glyph>
<glyph name="uni00AD" format="1">
  <advance width="1158"/>
  <unicode hex="00AD"/>
  <outline>
    <contour>
      <point x="178" y="549" type="line"/>
      <point x="960" y="549" type="line"/>
      <point x="960" y="809" type="line"/>
      <point x="178" y="809" type="line"/>
    </contour>
  </outline>
</glyph>
<glyph name="degree" format="1">
  <advance width="851"/>
  <unicode hex="00B0"/>
  <outline>
    <contour>
      <point x="410" y="805" type="curve" smooth="yes"/>
      <point x="316" y="805"/>
      <point x="236" y="878"/>
      <point x="236" y="973" type="curve" smooth="yes"/>
      <point x="236" y="1070"/>
      <point x="317" y="1144"/>
      <point x="410" y="1144" type="curve" smooth="yes"/>
      <point x="502" y="1144"/>
      <point x="583" y="1072"/>
      <point x="583" y="973" type="curve" smooth="yes"/>
      <point x="583" y="878"/>
      <point x="503" y="805"/>
    </contour>
    <contour>
      <point x="399" y="644" type="curve" smooth="yes"/>
      <point x="586" y="644"/>
      <point x="767" y="773"/>
      <point x="767" y="970" type="curve" smooth="yes"/>
      <point x="767" y="1164"/>
      <point x="601" y="1305"/>
      <point x="411" y="1305" type="curve" smooth="yes"/>
      <point x="229" y="1305"/>
      <point x="53" y="1167"/>
      <point x="53" y="979" type="curve" smooth="yes"/>
      <point x="53" y="794"/>
      <point x="214" y="644"/>
    </contour>
  </outline>
</glyph>
<glyph name="paragraph" format="1">
  <advance width="1348"/>
  <unicode hex="00B6"/>
  <outline>
    <contour>
      <point x="568" y="-143" type="line"/>
      <point x="817" y="-143" type="line"/>
      <point x="817" y="1280" type="line"/>
      <point x="981" y="1280" type="line"/>
      <point x="981" y="-143" type="line"/>
      <point x="1227" y="-143" type="line"/>
      <point x="1227" y="1489" type="line"/>
      <point x="610" y="1489" type="line" smooth="yes"/>
      <point x="361" y="1489"/>
      <point x="91" y="1435"/>
      <point x="91" y="1081" type="curve" smooth="yes"/>
      <point x="91" y="747"/>
      <point x="294" y="652"/>
      <point x="568" y="652" type="curve"/>
    </contour>
  </outline>
</glyph>
<glyph name="uni00B9" format="1">
  <advance width="986"/>
  <unicode hex="00B9"/>
  <outline>
    <contour>
      <point x="409" y="668" type="line"/>
      <point x="683" y="668" type="line"/>
      <point x="683" y="1613" type="line"/>
      <point x="435" y="1618" type="line"/>
      <point x="180" y="1510" type="line"/>
      <point x="255" y="1323" type="line"/>
      <point x="409" y="1395" type="line"/>
    </contour>
  </outline>
</glyph>
<glyph name="onehalf" format="1">
  <advance width="2102"/>
  <unicode hex="00BD"/>
  <outline>
    <contour>
      <point x="1326" y="0" type="line"/>
      <point x="1980" y="0" type="line"/>
      <point x="1980" y="189" type="line"/>
      <point x="1678" y="189" type="line"/>
      <point x="1687" y="197"/>
      <point x="1734" y="232"/>
      <point x="1746" y="242" type="curve"/>
      <point x="1902" y="360"/>
      <point x="1990" y="466"/>
      <point x="1990" y="610" type="curve" smooth="yes"/>
      <point x="1990" y="819"/>
      <point x="1828" y="905"/>
      <point x="1647" y="905" type="curve" smooth="yes"/>
      <point x="1519" y="905"/>
      <point x="1383" y="863"/>
      <point x="1286" y="790" type="curve"/>
      <point x="1361" y="612" type="line"/>
      <point x="1444" y="660"/>
      <point x="1538" y="691"/>
      <point x="1612" y="691" type="curve" smooth="yes"/>
      <point x="1686" y="691"/>
      <point x="1740" y="660"/>
      <point x="1740" y="584" type="curve" smooth="yes"/>
      <point x="1740" y="510"/>
      <point x="1692" y="443"/>
      <point x="1602" y="375" type="curve" smooth="yes"/>
      <point x="1589" y="364"/>
      <point x="1347" y="186"/>
      <point x="1326" y="167" type="curve"/>
    </contour>
    <contour>
      <point x="306" y="624" type="line"/>
      <point x="556" y="624" type="line"/>
      <point x="556" y="1492" type="line"/>
      <point x="383" y="1532" type="line"/>
      <point x="64" y="1388" type="line"/>
      <point x="138" y="1220" type="line"/>
      <point x="306" y="1300" type="line"/>
    </contour>
    <contour>
      <point x="599" y="-75" type="line"/>
      <point x="1550" y="1498" type="line"/>
      <point x="1370" y="1598" type="line"/>
      <point x="416" y="22" type="line"/>
    </contour>
  </outline>
</glyph>
<glyph name="AE" format="1">
  <advance width="1998"/>
  <unicode hex="00C6"/>
  <outline>
    <contour>
      <point x="1307" y="1490" type="move" name="top"/>
    </contour>
    <contour>
      <point x="6" y="0" type="line"/>
      <point x="412" y="0" type="line"/>
      <point x="550" y="313" type="line"/>
      <point x="952" y="313" type="line"/>
      <point x="952" y="0" type="line"/>
      <point x="1903" y="0" type="line"/>
      <point x="1903" y="267" type="line"/>
      <point x="1313" y="267" type="line"/>
      <point x="1313" y="654" type="line"/>
      <point x="1806" y="654" type="line"/>
      <point x="1806" y="881" type="line"/>
      <point x="1314" y="881" type="line"/>
      <point x="1314" y="1225" type="line"/>
      <point x="1904" y="1225" type="line"/>
      <point x="1904" y="1490" type="line"/>
      <point x="702" y="1490" type="line"/>
    </contour>
    <contour>
      <point x="634" y="539" type="line"/>
      <point x="953" y="1256" type="line"/>
      <point x="953" y="539" type="line"/>
    </contour>
  </outline>
</glyph>
<glyph name="multiply" format="1">
  <advance width="1313"/>
  <unicode hex="00D7"/>
  <outline>
    <contour>
      <point x="409" y="85" type="line"/>
      <point x="681" y="338" type="line"/>
      <point x="951" y="85" type="line"/>
      <point x="1131" y="282" type="line"/>
      <point x="875" y="523" type="line"/>
      <point x="1131" y="762" type="line"/>
      <point x="951" y="960" type="line"/>
      <point x="681" y="705" type="line"/>
      <point x="409" y="960" type="line"/>
      <point x="230" y="762" type="line"/>
      <point x="485" y="523" type="line"/>
      <point x="230" y="282" type="line"/>
    </contour>
  </outline>
</glyph>
<glyph name="germandbls" format="1">
  <advance width="1519"/>
  <unicode hex="00DF"/>
  <outline>
    <contour>
      <point x="619" y="-193" type="line"/>
      <point x="1053" y="-193"/>
      <point x="1453" y="-24"/>
      <point x="1453" y="331" type="curve" smooth="yes"/>
      <point x="1453" y="593"/>
      <point x="1296" y="737"/>
      <point x="979" y="771" type="curve"/>
      <point x="1217" y="800"/>
      <point x="1305" y="939"/>
      <point x="1305" y="1091" type="curve" smooth="yes"/>
      <point x="1305" y="1232"/>
      <point x="1239" y="1488"/>
      <point x="749" y="1491" type="curve" smooth="yes"/>
      <point x="327" y="1491"/>
      <point x="143" y="1292"/>
      <point x="143" y="919" type="curve" smooth="yes"/>
      <point x="144" y="0" type="line"/>
      <point x="512" y="-2" type="line"/>
      <point x="511" y="922" type="line" smooth="yes"/>
      <point x="511" y="1172"/>
      <point x="569" y="1249"/>
      <point x="749" y="1249" type="curve" smooth="yes"/>
      <point x="984" y="1249"/>
      <point x="984" y="1117"/>
      <point x="984" y="1065" type="curve" smooth="yes"/>
      <point x="984" y="920"/>
      <point x="890" y="858"/>
      <point x="708" y="856" type="curve"/>
      <point x="705" y="856"/>
      <point x="654" y="857"/>
      <point x="651" y="857" type="curve"/>
      <point x="652" y="705"/>
      <point x="651" y="645"/>
      <point x="651" y="642" type="curve"/>
      <point x="959" y="642"/>
      <point x="1089" y="530"/>
      <point x="1089" y="336" type="curve" smooth="yes"/>
      <point x="1089" y="212"/>
      <point x="1007" y="117"/>
      <point x="618" y="85" type="curve"/>
    </contour>
  </outline>
</glyph>
<glyph name="ae" format="1">
  <advance width="1752"/>
  <unicode hex="00E6"/>
  <outline>
    <contour>
      <point x="897" y="1098" type="move" name="top"/>
    </contour>
    <contour>
      <point x="444" y="-18" type="curve" smooth="yes"/>
      <point x="620" y="-18"/>
      <point x="788" y="47"/>
      <point x="864" y="188" type="curve"/>
      <point x="919" y="46"/>
      <point x="1070" y="-18"/>
      <point x="1227" y="-18" type="curve" smooth="yes"/>
      <point x="1405" y="-18"/>
      <point x="1540" y="16"/>
      <point x="1659" y="92" type="curve"/>
      <point x="1582" y="298" type="line"/>
      <point x="1481" y="241"/>
      <point x="1387" y="220"/>
      <point x="1286" y="220" type="curve" smooth="yes"/>
      <point x="1113" y="220"/>
      <point x="1037" y="323"/>
      <point x="1029" y="468" type="curve"/>
      <point x="1668" y="468" type="line"/>
      <point x="1672" y="499"/>
      <point x="1677" y="555"/>
      <point x="1677" y="642" type="curve" smooth="yes"/>
      <point x="1677" y="936"/>
      <point x="1515" y="1116"/>
      <point x="1236" y="1116" type="curve" smooth="yes"/>
      <point x="1071" y="1116"/>
      <point x="912" y="1025"/>
      <point x="869" y="911" type="curve"/>
      <point x="840" y="1070"/>
      <point x="695" y="1116"/>
      <point x="554" y="1116" type="curve" smooth="yes"/>
      <point x="394" y="1116"/>
      <point x="228" y="1064"/>
      <point x="132" y="1019" type="curve"/>
      <point x="197" y="806" type="line"/>
      <point x="255" y="833"/>
      <point x="395" y="885"/>
      <point x="530" y="885" type="curve" smooth="yes"/>
      <point x="705" y="885"/>
      <point x="713" y="766"/>
      <point x="713" y="674" type="curve" smooth="yes"/>
      <point x="713" y="669"/>
      <point x="713" y="655"/>
      <point x="713" y="638" type="curve"/>
      <point x="676" y="650"/>
      <point x="586" y="665"/>
      <point x="502" y="665" type="curve" smooth="yes"/>
      <point x="315" y="665"/>
      <point x="67" y="605"/>
      <point x="67" y="333" type="curve" smooth="yes"/>
      <point x="67" y="99"/>
      <point x="203" y="-18"/>
    </contour>
    <contour>
      <point x="528" y="215" type="curve" smooth="yes"/>
      <point x="446" y="215"/>
      <point x="389" y="274"/>
      <point x="389" y="366" type="curve" smooth="yes"/>
      <point x="389" y="470"/>
      <point x="453" y="512"/>
      <point x="615" y="512" type="curve" smooth="yes"/>
      <point x="641" y="512"/>
      <point x="677" y="510"/>
      <point x="713" y="506" type="curve"/>
      <point x="713" y="297" type="line"/>
      <point x="655" y="245"/>
      <point x="595" y="215"/>
    </contour>
    <contour>
      <point x="1033" y="657" type="line"/>
      <point x="1033" y="802"/>
      <point x="1102" y="895"/>
      <point x="1228" y="895" type="curve" smooth="yes"/>
      <point x="1329" y="895"/>
      <point x="1390" y="824"/>
      <point x="1390" y="657" type="curve"/>
    </contour>
  </outline>
</glyph>
<glyph name="thorn" format="1">
  <advance width="1291"/>
  <unicode hex="00FE"/>
  <outline>
    <contour>
      <point x="138" y="-423" type="line"/>
      <point x="485" y="-389" type="line"/>
      <point x="485" y="63" type="line"/>
      <point x="557" y="10"/>
      <point x="648" y="-17"/>
      <point x="745" y="-17" type="curve" smooth="yes"/>
      <point x="994" y="-17"/>
      <point x="1206" y="182"/>
      <point x="1206" y="555" type="curve" smooth="yes"/>
      <point x="1206" y="906"/>
      <point x="1041" y="1116"/>
      <point x="782" y="1116" type="curve" smooth="yes"/>
      <point x="673" y="1116"/>
      <point x="570" y="1083"/>
      <point x="483" y="1019" type="curve"/>
      <point x="481" y="1487" type="line"/>
      <point x="138" y="1487" type="line"/>
    </contour>
    <contour>
      <point x="650" y="200" type="curve" smooth="yes"/>
      <point x="594" y="200"/>
      <point x="535" y="219"/>
      <point x="486" y="255" type="curve"/>
      <point x="489" y="827" type="line"/>
      <point x="549" y="873"/>
      <point x="612" y="896"/>
      <point x="676" y="896" type="curve" smooth="yes"/>
      <point x="800" y="896"/>
      <point x="861" y="780"/>
      <point x="861" y="545" type="curve" smooth="yes"/>
      <point x="861" y="299"/>
      <point x="761" y="200"/>
    </contour>
  </outline>
</glyph>
<glyph name="Hbar" format="1">
  <advance width="1564"/>
  <unicode hex="0126"/>
  <outline>
    <contour>
      <point x="33" y="1135" type="line"/>
      <point x="1529" y="1135" type="line"/>
      <point x="1529" y="1299" type="line"/>
      <point x="33" y="1299" type="line"/>
    </contour>
    <component base="H"/>
  </outline>
</glyph>
<glyph name="Lslash" format="1">
  <advance width="1138"/>
  <unicode hex="0141"/>
  <outline>
    <contour>
      <point x="1" y="407" type="line"/>
      <point x="758" y="916" type="line"/>
      <point x="758" y="1128" type="line"/>
      <point x="1" y="619" type="line"/>
    </contour>
    <component base="L"/>
  </outline>
</glyph>
<glyph name="lslash" format="1">
  <advance width="646"/>
  <unicode hex="0142"/>
  <outline>
    <contour>
      <point x="-14" y="458" type="line"/>
      <point x="673" y="868" type="line"/>
      <point x="673" y="1074" type="line"/>
      <point x="-14" y="653" type="line"/>
    </contour>
    <component base="l"/>
  </outline>
</glyph>
<glyph name="Eng" format="1">
  <advance width="1600"/>
  <unicode hex="014A"/>
  <outline>
    <contour>
      <point x="1434" y="1485" type="line"/>
      <point x="1110" y="1485" type="line"/>
      <point x="1110" y="585" type="line"/>
      <point x="554" y="1485" type="line"/>
      <point x="169" y="1485" type="line"/>
      <point x="169" y="0" type="line"/>
      <point x="495" y="0" type="line"/>
      <point x="495" y="980" type="line"/>
      <point x="1090" y="42" type="line" smooth="yes"/>
      <point x="1090" y="-182"/>
      <point x="1086" y="-227"/>
      <point x="858" y="-302" type="curve"/>
      <point x="970" y="-541" type="line"/>
      <point x="1271" y="-479"/>
      <point x="1431" y="-374"/>
      <point x="1433" y="-77" type="curve" smooth="yes"/>
    </contour>
  </outline>
</glyph>
<glyph name="OE" format="1">
  <advance width="2163"/>
  <unicode hex="0152"/>
  <outline>
    <contour>
      <point x="729" y="-26" type="curve" smooth="yes"/>
      <point x="865" y="-26"/>
      <point x="1009" y="39"/>
      <point x="1079" y="107" type="curve"/>
      <point x="1079" y="0" type="line"/>
      <point x="2077" y="0" type="line"/>
      <point x="2077" y="266" type="line"/>
      <point x="1445" y="266" type="line"/>
      <point x="1445" y="656" type="line"/>
      <point x="2005" y="656" type="line"/>
      <point x="2005" y="881" type="line"/>
      <point x="1445" y="881" type="line"/>
      <point x="1445" y="1224" type="line"/>
      <point x="2069" y="1224" type="line"/>
      <point x="2069" y="1490" type="line"/>
      <point x="1079" y="1490" type="line"/>
      <point x="1079" y="1432" type="line"/>
      <point x="1016" y="1471"/>
      <point x="892" y="1512"/>
      <point x="771" y="1512" type="curve" smooth="yes"/>
      <point x="321" y="1512"/>
      <point x="93" y="1238"/>
      <point x="93" y="745" type="curve" smooth="yes"/>
      <point x="93" y="282"/>
      <point x="319" y="-26"/>
    </contour>
    <contour>
      <point x="768" y="237" type="curve" smooth="yes"/>
      <point x="524" y="237"/>
      <point x="459" y="459"/>
      <point x="459" y="745" type="curve" smooth="yes"/>
      <point x="459" y="1031"/>
      <point x="526" y="1252"/>
      <point x="769" y="1252" type="curve" smooth="yes"/>
      <point x="1012" y="1252"/>
      <point x="1079" y="1033"/>
      <point x="1079" y="745" type="curve" smooth="yes"/>
      <point x="1079" y="463"/>
      <point x="1015" y="237"/>
    </contour>
  </outline>
</glyph>
<glyph name="oe" format="1">
  <advance width="1864"/>
  <unicode hex="0153"/>
  <outline>
    <contour>
      <point x="598" y="-25" type="curve" smooth="yes"/>
      <point x="752" y="-25"/>
      <point x="872" y="22"/>
      <point x="957" y="112" type="curve"/>
      <point x="1060" y="22"/>
      <point x="1205" y="-25"/>
      <point x="1375" y="-25" type="curve" smooth="yes"/>
      <point x="1503" y="-25"/>
      <point x="1625" y="4"/>
      <point x="1743" y="64" type="curve"/>
      <point x="1681" y="293" type="line"/>
      <point x="1603" y="239"/>
      <point x="1510" y="210"/>
      <point x="1402" y="210" type="curve" smooth="yes"/>
      <point x="1255" y="210"/>
      <point x="1157" y="307"/>
      <point x="1151" y="468" type="curve"/>
      <point x="1796" y="468" type="line"/>
      <point x="1796" y="483"/>
      <point x="1796" y="611"/>
      <point x="1796" y="628" type="curve" smooth="yes"/>
      <point x="1796" y="927"/>
      <point x="1636" y="1129"/>
      <point x="1340" y="1129" type="curve" smooth="yes"/>
      <point x="1179" y="1129"/>
      <point x="1051" y="1077"/>
      <point x="960" y="986" type="curve"/>
      <point x="874" y="1080"/>
      <point x="752" y="1129"/>
      <point x="598" y="1129" type="curve" smooth="yes"/>
      <point x="254" y="1129"/>
      <point x="56" y="921"/>
      <point x="56" y="549" type="curve" smooth="yes"/>
      <point x="56" y="183"/>
      <point x="251" y="-25"/>
    </contour>
    <contour>
      <point x="598" y="206" type="curve" smooth="yes"/>
      <point x="422" y="206"/>
      <point x="404" y="406"/>
      <point x="404" y="552" type="curve" smooth="yes"/>
      <point x="404" y="798"/>
      <point x="469" y="897"/>
      <point x="598" y="897" type="curve" smooth="yes"/>
      <point x="727" y="897"/>
      <point x="793" y="798"/>
      <point x="793" y="552" type="curve" smooth="yes"/>
      <point x="793" y="305"/>
      <point x="727" y="206"/>
    </contour>
    <contour>
      <point x="1139" y="638" type="curve"/>
      <point x="1140" y="710"/>
      <point x="1197" y="896"/>
      <point x="1332" y="896" type="curve" smooth="yes"/>
      <point x="1457" y="896"/>
      <point x="1526" y="818"/>
      <point x="1526" y="641" type="curve" smooth="yes"/>
      <point x="1526" y="636"/>
      <point x="1408" y="638"/>
    </contour>
  </outline>
</glyph>
<glyph name="florin" format="1">
  <advance width="1289"/>
  <unicode hex="0192"/>
  <outline>
    <contour>
      <point x="425" y="0" type="line"/>
      <point x="769" y="0" type="line"/>
      <point x="875" y="943" type="line"/>
      <point x="1134" y="943" type="line"/>
      <point x="1150" y="1100" type="line"/>
      <point x="893" y="1100" type="line"/>
      <point x="914" y="1285"/>
      <point x="987" y="1305"/>
      <point x="1043" y="1305" type="curve" smooth="yes"/>
      <point x="1093" y="1305"/>
      <point x="1138" y="1306"/>
      <point x="1186" y="1294" type="curve"/>
      <point x="1200" y="1549" type="line"/>
      <point x="1121" y="1561"/>
      <point x="1054" y="1563"/>
      <point x="984" y="1563" type="curve" smooth="yes"/>
      <point x="747" y="1563"/>
      <point x="582" y="1430"/>
      <point x="546" y="1100" type="curve"/>
      <point x="367" y="1100" type="line"/>
      <point x="350" y="943" type="line"/>
      <point x="529" y="943" type="line"/>
    </contour>
  </outline>
</glyph>
<glyph name="uni0237" format="1">
  <advance width="761"/>
  <unicode hex="0237"/>
  <outline>
    <contour>
      <point x="392" y="1098" type="move" name="top"/>
    </contour>
    <contour>
      <point x="128" y="-448" type="line"/>
      <point x="411" y="-379"/>
      <point x="558" y="-251"/>
      <point x="558" y="29" type="curve" smooth="yes"/>
      <point x="558" y="1098" type="line"/>
      <point x="212" y="1098" type="line"/>
      <point x="212" y="107" type="line" smooth="yes"/>
      <point x="212" y="-75"/>
      <point x="203" y="-128"/>
      <point x="17" y="-213" type="curve"/>
    </contour>
  </outline>
</glyph>
<glyph name="breve" format="1">
  <advance width="700"/>
  <unicode hex="02D8"/>
  <outline>
    <contour>
      <point x="350" y="1098" type="move" name="_top"/>
    </contour>
    <contour>
      <point x="347" y="1229" type="curve" smooth="yes"/>
      <point x="551" y="1229"/>
      <point x="655" y="1327"/>
      <point x="664" y="1532" type="curve"/>
      <point x="484" y="1532" type="line"/>
      <point x="482" y="1456"/>
      <point x="438" y="1419"/>
      <point x="348" y="1419" type="curve" smooth="yes"/>
      <point x="262" y="1419"/>
      <point x="218" y="1456"/>
      <point x="216" y="1532" type="curve"/>
      <point x="35" y="1532" type="line"/>
      <point x="45" y="1327"/>
      <point x="147" y="1229"/>
    </contour>
  </outline>
</glyph>
<glyph name="ring" format="1">
  <advance width="965"/>
  <unicode hex="02DA"/>
  <outline>
    <contour>
      <point x="483" y="1098" type="move" name="_top"/>
    </contour>
    <contour>
      <point x="458" y="1641" type="move" name="top"/>
    </contour>
    <contour>
      <point x="486" y="1361" type="curve" smooth="yes"/>
      <point x="414" y="1361"/>
      <point x="368" y="1407"/>
      <point x="368" y="1481" type="curve" smooth="yes"/>
      <point x="368" y="1554"/>
      <point x="414" y="1601"/>
      <point x="486" y="1601" type="curve" smooth="yes"/>
      <point x="563" y="1601"/>
      <point x="611" y="1554"/>
      <point x="611" y="1481" type="curve" smooth="yes"/>
      <point x="611" y="1407"/>
      <point x="563" y="1361"/>
    </contour>
    <contour>
      <point x="486" y="1236" type="curve" smooth="yes"/>
      <point x="650" y="1236"/>
      <point x="754" y="1330"/>
      <point x="754" y="1481" type="curve" smooth="yes"/>
      <point x="754" y="1631"/>
      <point x="650" y="1725"/>
      <point x="486" y="1725" type="curve" smooth="yes"/>
      <point x="328" y="1725"/>
      <point x="226" y="1631"/>
      <point x="226" y="1481" type="curve" smooth="yes"/>
      <point x="226" y="1330"/>
      <point x="328" y="1236"/>
    </contour>
  </outline>
</glyph>
<glyph name="ogonek" format="1">
  <advance width="601"/>
  <unicode hex="02DB"/>
  <outline>
    <contour>
      <point x="367" y="-462" type="curve" smooth="yes"/>
      <point x="397" y="-462"/>
      <point x="430" y="-457"/>
      <point x="468" y="-446" type="curve"/>
      <point x="468" y="-292" type="line"/>
      <point x="449" y="-297"/>
      <point x="431" y="-299"/>
      <point x="415" y="-299" type="curve" smooth="yes"/>
      <point x="342" y="-299"/>
      <point x="300" y="-257"/>
      <point x="300" y="-195" type="curve" smooth="yes"/>
      <point x="300" y="-149"/>
      <point x="323" y="-79"/>
      <point x="411" y="0" type="curve"/>
      <point x="277" y="0" type="line"/>
      <point x="170" y="-73"/>
      <point x="123" y="-165"/>
      <point x="123" y="-247" type="curve" smooth="yes"/>
      <point x="123" y="-364"/>
      <point x="219" y="-462"/>
    </contour>
  </outline>
</glyph>
<glyph name="tilde" format="1">
  <advance width="1191"/>
  <unicode hex="02DC"/>
  <outline>
    <contour>
      <point x="569" y="1098" type="move" name="_top"/>
    </contour>
    <contour>
      <point x="185" y="1260" type="curve"/>
      <point x="269" y="1260" type="line"/>
      <point x="269" y="1338"/>
      <point x="301" y="1364"/>
      <point x="352" y="1364" type="curve" smooth="yes"/>
      <point x="456" y="1364"/>
      <point x="635" y="1251"/>
      <point x="751" y="1250" type="curve" smooth="yes"/>
      <point x="877" y="1250"/>
      <point x="938" y="1327"/>
      <point x="938" y="1531" type="curve"/>
      <point x="857" y="1531" type="line"/>
      <point x="857" y="1462"/>
      <point x="825" y="1439"/>
      <point x="777" y="1439" type="curve" smooth="yes"/>
      <point x="672" y="1439"/>
      <point x="490" y="1551"/>
      <point x="384" y="1552" type="curve" smooth="yes"/>
      <point x="253" y="1552"/>
      <point x="185" y="1480"/>
    </contour>
  </outline>
</glyph>
<glyph name="hungarumlaut" format="1">
  <advance width="1088"/>
  <unicode hex="02DD"/>
  <outline>
    <contour>
      <point x="520" y="1098" type="move" name="_top"/>
    </contour>
    <contour>
      <point x="272" y="1187" type="line"/>
      <point x="702" y="1647" type="line"/>
      <point x="488" y="1831" type="line"/>
      <point x="126" y="1305" type="line"/>
    </contour>
    <contour>
      <point x="719" y="1199" type="line"/>
      <point x="1197" y="1607" type="line"/>
      <point x="1007" y="1812" type="line"/>
      <point x="587" y="1332" type="line"/>
    </contour>
  </outline>
</glyph>
<glyph name="uni0307" format="1">
  <advance width="588"/>
  <unicode hex="0307"/>
  <outline>
    <contour>
      <point x="279" y="1098" type="move" name="_top"/>
    </contour>
    <contour>
      <point x="280" y="1219" type="curve" smooth="yes"/>
      <point x="398" y="1219"/>
      <point x="473" y="1293"/>
      <point x="473" y="1410" type="curve" smooth="yes"/>
      <point x="473" y="1527"/>
      <point x="398" y="1601"/>
      <point x="280" y="1601" type="curve" smooth="yes"/>
      <point x="163" y="1601"/>
      <point x="89" y="1527"/>
      <point x="89" y="1410" type="curve" smooth="yes"/>
      <point x="89" y="1293"/>
      <point x="163" y="1219"/>
    </contour>
  </outline>
</glyph>
<glyph name="uni030F" format="1">
  <advance width="1203"/>
  <unicode hex="030F"/>
  <outline>
    <contour>
      <point x="767" y="1098" type="move" name="_top"/>
    </contour>
    <contour>
      <point x="568" y="1199" type="line"/>
      <point x="700" y="1332" type="line"/>
      <point x="280" y="1812" type="line"/>
      <point x="89" y="1607" type="line"/>
    </contour>
    <contour>
      <point x="1015" y="1187" type="line"/>
      <point x="1160" y="1305" type="line"/>
      <point x="798" y="1831" type="line"/>
      <point x="584" y="1647" type="line"/>
    </contour>
  </outline>
</glyph>
<glyph name="uni0326" format="1">
  <advance width="737"/>
  <unicode hex="0326"/>
  <outline>
    <contour>
      <point x="403" y="0" type="move" name="_bot"/>
    </contour>
    <contour>
      <point x="243" y="-721" type="line"/>
      <point x="404" y="-673"/>
      <point x="549" y="-610"/>
      <point x="549" y="-374" type="curve" smooth="yes"/>
      <point x="549" y="-106" type="line"/>
      <point x="215" y="-106" type="line"/>
      <point x="215" y="-426" type="line"/>
      <point x="359" y="-426" type="line"/>
      <point x="359" y="-523"/>
      <point x="310" y="-572"/>
      <point x="186" y="-617" type="curve"/>
    </contour>
  </outline>
</glyph>
<glyph name="uni0394" format="1">
  <advance width="1407"/>
  <unicode hex="0394"/>
  <outline>
    <contour>
      <point x="14" y="0" type="line"/>
      <point x="1391" y="0" type="line"/>
      <point x="897" y="1490" type="line"/>
      <point x="509" y="1490" type="line"/>
    </contour>
    <contour>
      <point x="436" y="290" type="line"/>
      <point x="687" y="1163" type="line"/>
      <point x="901" y="290" type="line"/>
    </contour>
  </outline>
</glyph>
<glyph name="endash" format="1">
  <advance width="1022"/>
  <unicode hex="2013"/>
  <outline>
    <contour>
      <point x="163" y="544" type="line"/>
      <point x="844" y="544" type="line"/>
      <point x="844" y="803" type="line"/>
      <point x="163" y="803" type="line"/>
    </contour>
  </outline>
</glyph>
<glyph name="emdash" format="1">
  <advance width="2018"/>
  <unicode hex="2014"/>
  <outline>
    <contour>
      <point x="150" y="544" type="line"/>
      <point x="1854" y="544" type="line"/>
      <point x="1854" y="803" type="line"/>
      <point x="150" y="803" type="line"/>
    </contour>
  </outline>
</glyph>
<glyph name="quoteleft" format="1">
  <advance width="683"/>
  <unicode hex="2018"/>
  <outline>
    <contour>
      <point x="130" y="791" type="line"/>
      <point x="537" y="791" type="line"/>
      <point x="537" y="1195" type="line"/>
      <point x="364" y="1195" type="line"/>
      <point x="364" y="1290"/>
      <point x="413" y="1335"/>
      <point x="536" y="1381" type="curve"/>
      <point x="477" y="1490" type="line"/>
      <point x="317" y="1442"/>
      <point x="130" y="1378"/>
      <point x="130" y="1143" type="curve" smooth="yes"/>
    </contour>
  </outline>
</glyph>
<glyph name="quoteright" format="1">
  <advance width="537"/>
  <unicode hex="2019"/>
  <outline>
    <contour>
      <point x="124" y="786" type="line"/>
      <point x="291" y="835"/>
      <point x="472" y="901"/>
      <point x="472" y="1132" type="curve" smooth="yes"/>
      <point x="472" y="1485" type="line"/>
      <point x="64" y="1485" type="line"/>
      <point x="64" y="1081" type="line"/>
      <point x="236" y="1081" type="line"/>
      <point x="236" y="985"/>
      <point x="189" y="940"/>
      <point x="65" y="895" type="curve"/>
    </contour>
  </outline>
</glyph>
<glyph name="dagger" format="1">
  <advance width="1181"/>
  <unicode hex="2020"/>
  <outline>
    <contour>
      <point x="410" y="-179" type="line"/>
      <point x="775" y="-179" type="line"/>
      <point x="775" y="849" type="line"/>
      <point x="1085" y="849" type="line"/>
      <point x="1085" y="1083" type="line"/>
      <point x="774" y="1083" type="line"/>
      <point x="774" y="1490" type="line"/>
      <point x="410" y="1490" type="line"/>
      <point x="410" y="1083" type="line"/>
      <point x="94" y="1083" type="line"/>
      <point x="94" y="849" type="line"/>
      <point x="410" y="849" type="line"/>
    </contour>
  </outline>
</glyph>
<glyph name="perthousand" format="1">
  <advance width="3018"/>
  <unicode hex="2030"/>
  <outline>
    <contour>
      <point x="2563" y="188" type="curve" smooth="yes"/>
      <point x="2473" y="188"/>
      <point x="2416" y="268"/>
      <point x="2416" y="395" type="curve" smooth="yes"/>
      <point x="2416" y="527"/>
      <point x="2473" y="608"/>
      <point x="2563" y="608" type="curve" smooth="yes"/>
      <point x="2653" y="608"/>
      <point x="2709" y="527"/>
      <point x="2709" y="395" type="curve" smooth="yes"/>
      <point x="2709" y="268"/>
      <point x="2653" y="188"/>
    </contour>
    <contour>
      <point x="2563" y="-17" type="curve" smooth="yes"/>
      <point x="2792" y="-17"/>
      <point x="2936" y="142"/>
      <point x="2936" y="395" type="curve" smooth="yes"/>
      <point x="2936" y="649"/>
      <point x="2792" y="808"/>
      <point x="2563" y="808" type="curve" smooth="yes"/>
      <point x="2333" y="808"/>
      <point x="2189" y="649"/>
      <point x="2189" y="395" type="curve" smooth="yes"/>
      <point x="2189" y="142"/>
      <point x="2333" y="-17"/>
    </contour>
    <component base="percent"/>
  </outline>
</glyph>
<glyph name="guilsinglleft" format="1">
  <advance width="1033"/>
  <unicode hex="2039"/>
  <outline>
    <contour>
      <point x="888" y="30" type="line"/>
      <point x="888" y="321" type="line"/>
      <point x="493" y="564" type="line"/>
      <point x="889" y="807" type="line"/>
      <point x="889" y="1095" type="line"/>
      <point x="193" y="674" type="line"/>
      <point x="193" y="453" type="line"/>
    </contour>
  </outline>
</glyph>
<glyph name="fraction" format="1">
  <advance width="1117"/>
  <unicode hex="2044"/>
  <outline>
    <contour>
      <point x="277" y="-17" type="line"/>
      <point x="1117" y="1507" type="line"/>
      <point x="835" y="1507" type="line"/>
      <point x="0" y="-17" type="line"/>
    </contour>
  </outline>
</glyph>
<glyph name="uni2074" format="1">
  <advance width="1069"/>
  <unicode hex="2074"/>
  <outline>
    <contour>
      <point x="595" y="536" type="line"/>
      <point x="818" y="535" type="line"/>
      <point x="818" y="747" type="line"/>
      <point x="948" y="747" type="line"/>
      <point x="948" y="935" type="line"/>
      <point x="818" y="935" type="line"/>
      <point x="818" y="1564" type="line"/>
      <point x="601" y="1616" type="line"/>
      <point x="108" y="904" type="line"/>
      <point x="140" y="747" type="line"/>
      <point x="595" y="747" type="line"/>
    </contour>
    <contour>
      <point x="359" y="934" type="line"/>
      <point x="595" y="1294" type="line"/>
      <point x="595" y="934" type="line"/>
    </contour>
  </outline>
</glyph>
<glyph name="Omega" format="1">
  <advance width="1808"/>
  <unicode hex="2126"/>
  <outline>
    <contour>
      <point x="135" y="0" type="line"/>
      <point x="818" y="0" type="line"/>
      <point x="818" y="153" type="line"/>
      <point x="611" y="267"/>
      <point x="440" y="519"/>
      <point x="440" y="824" type="curve" smooth="yes"/>
      <point x="440" y="1128"/>
      <point x="650" y="1260"/>
      <point x="934" y="1260" type="curve" smooth="yes"/>
      <point x="1246" y="1260"/>
      <point x="1415" y="1093"/>
      <point x="1415" y="819" type="curve" smooth="yes"/>
      <point x="1415" y="512"/>
      <point x="1236" y="270"/>
      <point x="1033" y="152" type="curve"/>
      <point x="1034" y="0" type="line"/>
      <point x="1712" y="0" type="line"/>
      <point x="1732" y="184" type="line"/>
      <point x="1387" y="184" type="line"/>
      <point x="1572" y="344"/>
      <point x="1724" y="553"/>
      <point x="1724" y="839" type="curve" smooth="yes"/>
      <point x="1724" y="1206"/>
      <point x="1459" y="1512"/>
      <point x="939" y="1512" type="curve" smooth="yes"/>
      <point x="439" y="1512"/>
      <point x="131" y="1239"/>
      <point x="131" y="843" type="curve" smooth="yes"/>
      <point x="131" y="563"/>
      <point x="257" y="349"/>
      <point x="459" y="184" type="curve"/>
      <point x="112" y="184" type="line"/>
    </contour>
  </outline>
</glyph>
<glyph name="estimated" format="1">
  <advance width="1168"/>
  <unicode hex="212E"/>
  <outline>
    <contour>
      <point x="631" y="133" type="curve" smooth="yes"/>
      <point x="760" y="133"/>
      <point x="922" y="174"/>
      <point x="1011" y="249" type="curve"/>
      <point x="961" y="360" type="line"/>
      <point x="919" y="327"/>
      <point x="805" y="254"/>
      <point x="662" y="254" type="curve" smooth="yes"/>
      <point x="561" y="254"/>
      <point x="460" y="285"/>
      <point x="395" y="357" type="curve"/>
      <point x="395" y="685" type="line"/>
      <point x="1038" y="685" type="line"/>
      <point x="1044" y="719"/>
      <point x="1048" y="754"/>
      <point x="1048" y="788" type="curve" smooth="yes"/>
      <point x="1048" y="1063"/>
      <point x="911" y="1270"/>
      <point x="622" y="1270" type="curve" smooth="yes"/>
      <point x="283" y="1270"/>
      <point x="124" y="999"/>
      <point x="124" y="696" type="curve" smooth="yes"/>
      <point x="124" y="383"/>
      <point x="291" y="133"/>
    </contour>
    <contour>
      <point x="395" y="795" type="line"/>
      <point x="395" y="1061" type="line"/>
      <point x="445" y="1113"/>
      <point x="525" y="1145"/>
      <point x="623" y="1145" type="curve" smooth="yes"/>
      <point x="709" y="1145"/>
      <point x="772" y="1117"/>
      <point x="816" y="1070" type="curve"/>
      <point x="816" y="795" type="line"/>
    </contour>
  </outline>
</glyph>
<glyph name="product" format="1">
  <advance width="1688"/>
  <unicode hex="220F"/>
  <outline>
    <contour>
      <point x="263" y="-112" type="line"/>
      <point x="630" y="-112" type="line"/>
      <point x="630" y="1219" type="line"/>
      <point x="1059" y="1219" type="line"/>
      <point x="1059" y="-112" type="line"/>
      <point x="1426" y="-112" type="line"/>
      <point x="1426" y="1219" type="line"/>
      <point x="1652" y="1219" type="line"/>
      <point x="1652" y="1485" type="line"/>
      <point x="37" y="1485" type="line"/>
      <point x="37" y="1219" type="line"/>
      <point x="263" y="1219" type="line"/>
    </contour>
  </outline>
</glyph>
<glyph name="minus" format="1">
  <advance width="778"/>
  <unicode hex="2212"/>
  <outline>
    <contour>
      <point x="67" y="452" type="line"/>
      <point x="710" y="452" type="line"/>
      <point x="710" y="694" type="line"/>
      <point x="67" y="694" type="line"/>
    </contour>
  </outline>
</glyph>
<glyph name="integral" format="1">
  <advance width="1208"/>
  <unicode hex="222B"/>
  <outline>
    <contour>
      <point x="290" y="-429" type="curve" smooth="yes"/>
      <point x="526" y="-429"/>
      <point x="686" y="-287"/>
      <point x="722" y="49" type="curve" smooth="yes"/>
      <point x="835" y="1093" type="line" smooth="yes"/>
      <point x="856" y="1281"/>
      <point x="928" y="1305"/>
      <point x="986" y="1305" type="curve" smooth="yes"/>
      <point x="1034" y="1305"/>
      <point x="1081" y="1306"/>
      <point x="1128" y="1294" type="curve"/>
      <point x="1143" y="1549" type="line"/>
      <point x="1064" y="1561"/>
      <point x="996" y="1563"/>
      <point x="926" y="1563" type="curve" smooth="yes"/>
      <point x="689" y="1563"/>
      <point x="524" y="1426"/>
      <point x="488" y="1093" type="curve" smooth="yes"/>
      <point x="375" y="53" type="line"/>
      <point x="354" y="-146"/>
      <point x="284" y="-173"/>
      <point x="230" y="-173" type="curve" smooth="yes"/>
      <point x="181" y="-173"/>
      <point x="135" y="-172"/>
      <point x="88" y="-159" type="curve"/>
      <point x="73" y="-413" type="line"/>
      <point x="153" y="-427"/>
      <point x="220" y="-429"/>
    </contour>
  </outline>
</glyph>
<glyph name="notequal" format="1">
  <advance width="1271"/>
  <unicode hex="2260"/>
  <outline>
    <contour>
      <point x="482" y="-158" type="line"/>
      <point x="620" y="262" type="line"/>
      <point x="1136" y="262" type="line"/>
      <point x="1136" y="492" type="line"/>
      <point x="696" y="492" type="line"/>
      <point x="747" y="644" type="line"/>
      <point x="1136" y="644" type="line"/>
      <point x="1136" y="873" type="line"/>
      <point x="823" y="873" type="line"/>
      <point x="947" y="1244" type="line"/>
      <point x="788" y="1296" type="line"/>
      <point x="650" y="873" type="line"/>
      <point x="139" y="873" type="line"/>
      <point x="139" y="644" type="line"/>
      <point x="574" y="644" type="line"/>
      <point x="525" y="492" type="line"/>
      <point x="139" y="492" type="line"/>
      <point x="139" y="262" type="line"/>
      <point x="449" y="262" type="line"/>
      <point x="329" y="-108" type="line"/>
    </contour>
  </outline>
</glyph>
<glyph name="lessequal" format="1">
  <advance width="1438"/>
  <unicode hex="2264"/>
  <outline>
    <contour>
      <point x="1142" y="350" type="line"/>
      <point x="1258" y="574" type="line"/>
      <point x="642" y="883" type="line"/>
      <point x="1258" y="1191" type="line"/>
      <point x="1142" y="1416" type="line"/>
      <point x="122" y="883" type="line"/>
    </contour>
    <contour>
      <point x="182" y="0" type="line"/>
      <point x="1216" y="0" type="line"/>
      <point x="1216" y="201" type="line"/>
      <point x="182" y="201" type="line"/>
    </contour>
  </outline>
</glyph>
<glyph name="greaterequal" format="1">
  <advance width="1438"/>
  <unicode hex="2265"/>
  <outline>
    <contour>
      <point x="272" y="350" type="line"/>
      <point x="1292" y="883" type="line"/>
      <point x="272" y="1416" type="line"/>
      <point x="156" y="1191" type="line"/>
      <point x="771" y="883" type="line"/>
      <point x="156" y="574" type="line"/>
    </contour>
    <contour>
      <point x="198" y="0" type="line"/>
      <point x="1232" y="0" type="line"/>
      <point x="1232" y="201" type="line"/>
      <point x="198" y="201" type="line"/>
    </contour>
  </outline>
</glyph>
<glyph name="uniFB02" format="1">
  <advance width="1475"/>
  <unicode hex="FB02"/>
  <outline>
    <contour>
      <point x="204" y="0" type="line"/>
      <point x="551" y="0" type="line"/>
      <point x="551" y="909" type="line"/>
      <point x="809" y="909" type="line"/>
      <point x="809" y="1096" type="line"/>
      <point x="552" y="1096" type="line"/>
      <point x="552" y="1133" type="line"/>
      <point x="557" y="1298"/>
      <point x="634" y="1342"/>
      <point x="762" y="1342" type="curve" smooth="yes"/>
      <point x="824" y="1342"/>
      <point x="895" y="1332"/>
      <point x="975" y="1320" type="curve"/>
      <point x="975" y="0" type="line"/>
      <point x="1322" y="0" type="line"/>
      <point x="1322" y="1518" type="line"/>
      <point x="1092" y="1548"/>
      <point x="881" y="1579"/>
      <point x="707" y="1579" type="curve" smooth="yes"/>
      <point x="406" y="1579"/>
      <point x="204" y="1484"/>
      <point x="204" y="1137" type="curve" smooth="yes"/>
      <point x="204" y="1096" type="line"/>
      <point x="24" y="1096" type="line"/>
      <point x="24" y="909" type="line"/>
      <point x="204" y="909" type="line"/>
    </contour>
  </outline>
</glyph>
<glyph name="uniFB03" format="1">
  <advance width="2328"/>
  <unicode hex="FB03"/>
  <outline>
    <contour>
      <point x="211" y="0" type="line"/>
      <point x="556" y="0" type="line"/>
      <point x="556" y="909" type="line"/>
      <point x="992" y="909" type="line"/>
      <point x="992" y="0" type="line"/>
      <point x="1337" y="0" type="line"/>
      <point x="1337" y="909" type="line"/>
      <point x="1808" y="909" type="line"/>
      <point x="1808" y="0" type="line"/>
      <point x="2154" y="0" type="line"/>
      <point x="2154" y="1096" type="line"/>
      <point x="1337" y="1096" type="line"/>
      <point x="1337" y="1162" type="line" smooth="yes"/>
      <point x="1337" y="1291"/>
      <point x="1410" y="1320"/>
      <point x="1487" y="1321" type="curve" smooth="yes"/>
      <point x="1532" y="1321"/>
      <point x="1587" y="1309"/>
      <point x="1633" y="1294" type="curve"/>
      <point x="1683" y="1503" type="line"/>
      <point x="1615" y="1543"/>
      <point x="1507" y="1573"/>
      <point x="1383" y="1574" type="curve" smooth="yes"/>
      <point x="1210" y="1574"/>
      <point x="992" y="1494"/>
      <point x="992" y="1129" type="curve" smooth="yes"/>
      <point x="992" y="1096" type="line"/>
      <point x="556" y="1096" type="line"/>
      <point x="556" y="1162" type="line" smooth="yes"/>
      <point x="556" y="1291"/>
      <point x="629" y="1320"/>
      <point x="706" y="1321" type="curve" smooth="yes"/>
      <point x="751" y="1321"/>
      <point x="805" y="1309"/>
      <point x="851" y="1294" type="curve"/>
      <point x="902" y="1503" type="line"/>
      <point x="834" y="1543"/>
      <point x="726" y="1573"/>
      <point x="602" y="1574" type="curve" smooth="yes"/>
      <point x="428" y="1574"/>
      <point x="211" y="1494"/>
      <point x="211" y="1129" type="curve" smooth="yes"/>
      <point x="211" y="1096" type="line"/>
      <point x="28" y="1096" type="line"/>
      <point x="28" y="909" type="line"/>
      <point x="211" y="909" type="line"/>
    </contour>
    <contour>
      <point x="1982" y="1277" type="curve" smooth="yes"/>
      <point x="2090" y="1277"/>
      <point x="2176" y="1360"/>
      <point x="2176" y="1461" type="curve" smooth="yes"/>
      <point x="2176" y="1568"/>
      <point x="2088" y="1645"/>
      <point x="1982" y="1645" type="curve" smooth="yes"/>
      <point x="1875" y="1645"/>
      <point x="1791" y="1568"/>
      <point x="1791" y="1461" type="curve" smooth="yes"/>
      <point x="1791" y="1364"/>
      <point x="1871" y="1277"/>
    </contour>
  </outline>
</glyph>
